<mxfile host="app.diagrams.net" modified="2023-11-24T19:25:42.800Z" agent="Mozilla/5.0 (X11; Linux x86_64) AppleWebKit/537.36 (KHTML, like Gecko) Chrome/119.0.0.0 Safari/537.36" etag="N_G6OBgSNtV3CrhxEmpz" version="22.1.4" type="google">
  <diagram id="R2lEEEUBdFMjLlhIrx00" name="Page-1">
    <mxGraphModel grid="1" page="0" gridSize="10" guides="1" tooltips="1" connect="1" arrows="1" fold="1" pageScale="1" pageWidth="850" pageHeight="1100" math="0" shadow="0" extFonts="Permanent Marker^https://fonts.googleapis.com/css?family=Permanent+Marker">
      <root>
        <mxCell id="0" />
        <mxCell id="1" parent="0" />
        <mxCell id="FUVvW8D2CZjYxVvYTpuD-147" value="Charges" style="swimlane;fontStyle=0;childLayout=stackLayout;horizontal=1;startSize=26;fillColor=#f8cecc;horizontalStack=0;resizeParent=1;resizeParentMax=0;resizeLast=0;collapsible=1;marginBottom=0;fixDash=0;portConstraintRotation=0;connectable=1;allowArrows=1;strokeColor=#b85450;" vertex="1" parent="1">
          <mxGeometry x="-505" y="679.82" width="140" height="78" as="geometry">
            <mxRectangle x="-240" y="703.3299999999999" width="90" height="30" as="alternateBounds" />
          </mxGeometry>
        </mxCell>
        <mxCell id="llPPeMHtx-DtPn5ioxyx-3" value="Id" style="text;strokeColor=none;fillColor=none;align=left;verticalAlign=top;spacingLeft=4;spacingRight=4;overflow=hidden;rotatable=0;points=[[0,0.5],[1,0.5]];portConstraint=eastwest;connectable=0;fontStyle=4" vertex="1" parent="FUVvW8D2CZjYxVvYTpuD-147">
          <mxGeometry y="26" width="140" height="26" as="geometry" />
        </mxCell>
        <mxCell id="llPPeMHtx-DtPn5ioxyx-5" value="Amount" style="text;strokeColor=none;fillColor=none;align=left;verticalAlign=top;spacingLeft=4;spacingRight=4;overflow=hidden;rotatable=0;points=[[0,0.5],[1,0.5]];portConstraint=eastwest;connectable=0;" vertex="1" parent="FUVvW8D2CZjYxVvYTpuD-147">
          <mxGeometry y="52" width="140" height="26" as="geometry" />
        </mxCell>
        <mxCell id="FUVvW8D2CZjYxVvYTpuD-181" style="edgeStyle=none;shape=connector;rounded=1;orthogonalLoop=1;jettySize=auto;html=1;exitX=0;exitY=1;exitDx=0;exitDy=0;labelBackgroundColor=default;strokeColor=default;strokeWidth=1;align=center;verticalAlign=middle;fontFamily=Helvetica;fontSize=12;fontColor=default;endArrow=none;endFill=0;startSize=6;endSize=6;entryX=0.75;entryY=0;entryDx=0;entryDy=0;" edge="1" parent="1" source="FUVvW8D2CZjYxVvYTpuD-1" target="FUVvW8D2CZjYxVvYTpuD-69">
          <mxGeometry relative="1" as="geometry">
            <mxPoint x="846" y="620" as="targetPoint" />
            <Array as="points">
              <mxPoint x="810" y="620" />
              <mxPoint x="-178" y="620" />
            </Array>
          </mxGeometry>
        </mxCell>
        <mxCell id="FUVvW8D2CZjYxVvYTpuD-182" value="1" style="edgeLabel;html=1;align=center;verticalAlign=middle;resizable=0;points=[];fontSize=12;fontFamily=Helvetica;fontColor=default;" connectable="0" vertex="1" parent="FUVvW8D2CZjYxVvYTpuD-181">
          <mxGeometry x="0.9197" y="2" relative="1" as="geometry">
            <mxPoint as="offset" />
          </mxGeometry>
        </mxCell>
        <mxCell id="FUVvW8D2CZjYxVvYTpuD-183" value="0..*" style="edgeLabel;html=1;align=center;verticalAlign=middle;resizable=0;points=[];fontSize=12;fontFamily=Helvetica;fontColor=default;" connectable="0" vertex="1" parent="FUVvW8D2CZjYxVvYTpuD-181">
          <mxGeometry x="-0.9646" y="-3" relative="1" as="geometry">
            <mxPoint x="2" as="offset" />
          </mxGeometry>
        </mxCell>
        <mxCell id="llPPeMHtx-DtPn5ioxyx-27" value="has&amp;nbsp;►" style="edgeLabel;html=1;align=center;verticalAlign=middle;resizable=0;points=[];" connectable="0" vertex="1" parent="FUVvW8D2CZjYxVvYTpuD-181">
          <mxGeometry x="0.2217" y="-4" relative="1" as="geometry">
            <mxPoint as="offset" />
          </mxGeometry>
        </mxCell>
        <mxCell id="TCDaWI29hVGHiBamOFBC-31" style="edgeStyle=none;shape=connector;rounded=1;orthogonalLoop=1;jettySize=auto;html=1;exitX=0.329;exitY=-0.009;exitDx=0;exitDy=0;labelBackgroundColor=default;strokeColor=default;strokeWidth=1;align=center;verticalAlign=middle;fontFamily=Helvetica;fontSize=12;fontColor=default;endArrow=none;endFill=0;startSize=6;endSize=6;entryX=0;entryY=0.5;entryDx=0;entryDy=0;exitPerimeter=0;" edge="1" parent="1" source="FUVvW8D2CZjYxVvYTpuD-1" target="FUVvW8D2CZjYxVvYTpuD-112">
          <mxGeometry relative="1" as="geometry">
            <mxPoint x="810.7600000000002" y="291" as="sourcePoint" />
            <mxPoint x="840" y="40" as="targetPoint" />
            <Array as="points">
              <mxPoint x="857" y="46" />
            </Array>
          </mxGeometry>
        </mxCell>
        <mxCell id="TCDaWI29hVGHiBamOFBC-33" value="1" style="edgeLabel;html=1;align=center;verticalAlign=middle;resizable=0;points=[];fontSize=12;fontFamily=Helvetica;fontColor=default;" vertex="1" connectable="0" parent="TCDaWI29hVGHiBamOFBC-31">
          <mxGeometry x="-0.7555" relative="1" as="geometry">
            <mxPoint y="16" as="offset" />
          </mxGeometry>
        </mxCell>
        <mxCell id="llPPeMHtx-DtPn5ioxyx-17" value="consumes ▲" style="edgeLabel;html=1;align=center;verticalAlign=middle;resizable=0;points=[];" connectable="0" vertex="1" parent="TCDaWI29hVGHiBamOFBC-31">
          <mxGeometry x="-0.0017" y="-2" relative="1" as="geometry">
            <mxPoint x="-21" as="offset" />
          </mxGeometry>
        </mxCell>
        <mxCell id="llPPeMHtx-DtPn5ioxyx-30" value="1" style="edgeLabel;html=1;align=center;verticalAlign=middle;resizable=0;points=[];" connectable="0" vertex="1" parent="TCDaWI29hVGHiBamOFBC-31">
          <mxGeometry x="0.7518" y="-1" relative="1" as="geometry">
            <mxPoint as="offset" />
          </mxGeometry>
        </mxCell>
        <mxCell id="FUVvW8D2CZjYxVvYTpuD-1" value="Member" style="swimlane;fontStyle=0;childLayout=stackLayout;horizontal=1;startSize=26;fillColor=none;horizontalStack=0;resizeParent=1;resizeParentMax=0;resizeLast=0;collapsible=1;marginBottom=0;fixDash=0;portConstraintRotation=0;connectable=1;allowArrows=1;" vertex="1" parent="1">
          <mxGeometry x="810.76" y="320" width="140" height="52" as="geometry">
            <mxRectangle x="700" y="320" width="90" height="30" as="alternateBounds" />
          </mxGeometry>
        </mxCell>
        <mxCell id="FUVvW8D2CZjYxVvYTpuD-2" value="User" style="swimlane;fontStyle=0;childLayout=stackLayout;horizontal=1;startSize=26;fillColor=none;horizontalStack=0;resizeParent=1;resizeParentMax=0;resizeLast=0;collapsible=1;marginBottom=0;fixDash=0;portConstraintRotation=0;connectable=1;allowArrows=1;" vertex="1" parent="1">
          <mxGeometry x="-74" y="350" width="140" height="130" as="geometry" />
        </mxCell>
        <mxCell id="TCDaWI29hVGHiBamOFBC-6" value="Id" style="text;strokeColor=none;fillColor=none;align=left;verticalAlign=top;spacingLeft=4;spacingRight=4;overflow=hidden;rotatable=0;points=[[0,0.5],[1,0.5]];portConstraint=eastwest;fontStyle=4;connectable=0;" vertex="1" parent="FUVvW8D2CZjYxVvYTpuD-2">
          <mxGeometry y="26" width="140" height="26" as="geometry" />
        </mxCell>
        <mxCell id="FUVvW8D2CZjYxVvYTpuD-3" value="UserName" style="text;strokeColor=none;fillColor=none;align=left;verticalAlign=top;spacingLeft=4;spacingRight=4;overflow=hidden;rotatable=0;points=[[0,0.5],[1,0.5]];portConstraint=eastwest;fontStyle=0;connectable=0;" vertex="1" parent="FUVvW8D2CZjYxVvYTpuD-2">
          <mxGeometry y="52" width="140" height="26" as="geometry" />
        </mxCell>
        <mxCell id="FUVvW8D2CZjYxVvYTpuD-4" value="PasswordHash" style="text;strokeColor=none;fillColor=none;align=left;verticalAlign=top;spacingLeft=4;spacingRight=4;overflow=hidden;rotatable=0;points=[[0,0.5],[1,0.5]];portConstraint=eastwest;connectable=0;" vertex="1" parent="FUVvW8D2CZjYxVvYTpuD-2">
          <mxGeometry y="78" width="140" height="26" as="geometry" />
        </mxCell>
        <mxCell id="FUVvW8D2CZjYxVvYTpuD-5" value="Salt" style="text;strokeColor=none;fillColor=none;align=left;verticalAlign=top;spacingLeft=4;spacingRight=4;overflow=hidden;rotatable=0;points=[[0,0.5],[1,0.5]];portConstraint=eastwest;connectable=0;" vertex="1" parent="FUVvW8D2CZjYxVvYTpuD-2">
          <mxGeometry y="104" width="140" height="26" as="geometry" />
        </mxCell>
        <mxCell id="FUVvW8D2CZjYxVvYTpuD-6" style="edgeStyle=none;html=1;entryX=1;entryY=0.25;entryDx=0;entryDy=0;strokeWidth=1;endArrow=none;endFill=0;startSize=6;endSize=6;orthogonal=1;" edge="1" parent="1" source="FUVvW8D2CZjYxVvYTpuD-8" target="FUVvW8D2CZjYxVvYTpuD-16">
          <mxGeometry relative="1" as="geometry">
            <mxPoint x="250" y="121" as="sourcePoint" />
          </mxGeometry>
        </mxCell>
        <mxCell id="FUVvW8D2CZjYxVvYTpuD-7" value="◄ Live in" style="edgeLabel;align=center;verticalAlign=middle;resizable=0;points=[];" connectable="0" vertex="1" parent="FUVvW8D2CZjYxVvYTpuD-6">
          <mxGeometry x="-0.1462" y="-2" relative="1" as="geometry">
            <mxPoint x="-42" y="2" as="offset" />
          </mxGeometry>
        </mxCell>
        <mxCell id="FUVvW8D2CZjYxVvYTpuD-8" value="Person" style="swimlane;fontStyle=0;childLayout=stackLayout;horizontal=1;startSize=26;fillColor=none;horizontalStack=0;resizeParent=1;resizeParentMax=0;resizeLast=0;collapsible=1;marginBottom=0;" vertex="1" parent="1">
          <mxGeometry x="480" y="20" width="140" height="208" as="geometry">
            <mxRectangle x="480" y="20" width="80" height="60" as="alternateBounds" />
          </mxGeometry>
        </mxCell>
        <mxCell id="TCDaWI29hVGHiBamOFBC-18" value="No Avs" style="text;strokeColor=none;fillColor=none;align=left;verticalAlign=top;spacingLeft=4;spacingRight=4;overflow=hidden;rotatable=0;points=[[0,0.5],[1,0.5]];portConstraint=eastwest;fontStyle=4;connectable=0;" vertex="1" parent="FUVvW8D2CZjYxVvYTpuD-8">
          <mxGeometry y="26" width="140" height="26" as="geometry" />
        </mxCell>
        <mxCell id="FUVvW8D2CZjYxVvYTpuD-10" value="Name []" style="text;strokeColor=none;fillColor=none;align=left;verticalAlign=top;spacingLeft=4;spacingRight=4;overflow=hidden;rotatable=0;points=[[0,0.5],[1,0.5]];portConstraint=eastwest;connectable=0;" vertex="1" parent="FUVvW8D2CZjYxVvYTpuD-8">
          <mxGeometry y="52" width="140" height="26" as="geometry" />
        </mxCell>
        <mxCell id="FUVvW8D2CZjYxVvYTpuD-11" value="LastName" style="text;strokeColor=none;fillColor=none;align=left;verticalAlign=top;spacingLeft=4;spacingRight=4;overflow=hidden;rotatable=0;points=[[0,0.5],[1,0.5]];portConstraint=eastwest;connectable=0;" vertex="1" parent="FUVvW8D2CZjYxVvYTpuD-8">
          <mxGeometry y="78" width="140" height="26" as="geometry" />
        </mxCell>
        <mxCell id="FUVvW8D2CZjYxVvYTpuD-12" value="Address" style="text;strokeColor=none;fillColor=none;align=left;verticalAlign=top;spacingLeft=4;spacingRight=4;overflow=hidden;rotatable=0;points=[[0,0.5],[1,0.5]];portConstraint=eastwest;connectable=0;" vertex="1" parent="FUVvW8D2CZjYxVvYTpuD-8">
          <mxGeometry y="104" width="140" height="26" as="geometry" />
        </mxCell>
        <mxCell id="FUVvW8D2CZjYxVvYTpuD-13" value="Phone" style="text;strokeColor=none;fillColor=none;align=left;verticalAlign=top;spacingLeft=4;spacingRight=4;overflow=hidden;rotatable=0;points=[[0,0.5],[1,0.5]];portConstraint=eastwest;connectable=0;" vertex="1" parent="FUVvW8D2CZjYxVvYTpuD-8">
          <mxGeometry y="130" width="140" height="26" as="geometry" />
        </mxCell>
        <mxCell id="FUVvW8D2CZjYxVvYTpuD-14" value="Mobile" style="text;strokeColor=none;fillColor=none;align=left;verticalAlign=top;spacingLeft=4;spacingRight=4;overflow=hidden;rotatable=0;points=[[0,0.5],[1,0.5]];portConstraint=eastwest;connectable=0;" vertex="1" parent="FUVvW8D2CZjYxVvYTpuD-8">
          <mxGeometry y="156" width="140" height="26" as="geometry" />
        </mxCell>
        <mxCell id="FUVvW8D2CZjYxVvYTpuD-15" value="EMail" style="text;strokeColor=none;fillColor=none;align=left;verticalAlign=top;spacingLeft=4;spacingRight=4;overflow=hidden;rotatable=0;points=[[0,0.5],[1,0.5]];portConstraint=eastwest;connectable=0;" vertex="1" parent="FUVvW8D2CZjYxVvYTpuD-8">
          <mxGeometry y="182" width="140" height="26" as="geometry" />
        </mxCell>
        <mxCell id="FUVvW8D2CZjYxVvYTpuD-16" value="City" style="swimlane;fontStyle=0;childLayout=stackLayout;horizontal=1;startSize=26;fillColor=none;horizontalStack=0;resizeParent=1;resizeParentMax=0;resizeLast=0;collapsible=1;marginBottom=0;" vertex="1" parent="1">
          <mxGeometry x="-265" y="43" width="140" height="78" as="geometry">
            <mxRectangle x="-50" y="40" width="60" height="30" as="alternateBounds" />
          </mxGeometry>
        </mxCell>
        <mxCell id="FUVvW8D2CZjYxVvYTpuD-17" value="NPA" style="text;strokeColor=none;fillColor=none;align=left;verticalAlign=top;spacingLeft=4;spacingRight=4;overflow=hidden;rotatable=0;points=[[0,0.5],[1,0.5]];portConstraint=eastwest;fontStyle=4;connectable=0;" vertex="1" parent="FUVvW8D2CZjYxVvYTpuD-16">
          <mxGeometry y="26" width="140" height="26" as="geometry" />
        </mxCell>
        <mxCell id="FUVvW8D2CZjYxVvYTpuD-18" value="Name" style="text;strokeColor=none;fillColor=none;align=left;verticalAlign=top;spacingLeft=4;spacingRight=4;overflow=hidden;rotatable=0;points=[[0,0.5],[1,0.5]];portConstraint=eastwest;fontStyle=0;connectable=0;" vertex="1" parent="FUVvW8D2CZjYxVvYTpuD-16">
          <mxGeometry y="52" width="140" height="26" as="geometry" />
        </mxCell>
        <mxCell id="FUVvW8D2CZjYxVvYTpuD-19" style="edgeStyle=none;html=1;exitX=1;exitY=0.5;exitDx=0;exitDy=0;entryX=0;entryY=0.5;entryDx=0;entryDy=0;strokeWidth=1;endArrow=none;endFill=0;startSize=6;endSize=6;" edge="1" parent="1" source="FUVvW8D2CZjYxVvYTpuD-23" target="FUVvW8D2CZjYxVvYTpuD-16">
          <mxGeometry relative="1" as="geometry" />
        </mxCell>
        <mxCell id="FUVvW8D2CZjYxVvYTpuD-20" value="1..*" style="edgeLabel;html=1;align=center;verticalAlign=middle;resizable=0;points=[];" connectable="0" vertex="1" parent="FUVvW8D2CZjYxVvYTpuD-19">
          <mxGeometry x="0.584" y="1" relative="1" as="geometry">
            <mxPoint as="offset" />
          </mxGeometry>
        </mxCell>
        <mxCell id="FUVvW8D2CZjYxVvYTpuD-21" value="1" style="edgeLabel;html=1;align=center;verticalAlign=middle;resizable=0;points=[];" connectable="0" vertex="1" parent="FUVvW8D2CZjYxVvYTpuD-19">
          <mxGeometry x="-0.6261" y="1" relative="1" as="geometry">
            <mxPoint x="-17" as="offset" />
          </mxGeometry>
        </mxCell>
        <mxCell id="FUVvW8D2CZjYxVvYTpuD-22" value="◄ is in" style="edgeLabel;align=center;verticalAlign=middle;resizable=0;points=[];" connectable="0" vertex="1" parent="FUVvW8D2CZjYxVvYTpuD-19">
          <mxGeometry x="-0.1266" y="-1" relative="1" as="geometry">
            <mxPoint as="offset" />
          </mxGeometry>
        </mxCell>
        <mxCell id="FUVvW8D2CZjYxVvYTpuD-23" value="Canton" style="swimlane;fontStyle=0;childLayout=stackLayout;horizontal=1;startSize=26;fillColor=none;horizontalStack=0;resizeParent=1;resizeParentMax=0;resizeLast=0;collapsible=1;marginBottom=0;" vertex="1" parent="1">
          <mxGeometry x="-530" y="43" width="140" height="78" as="geometry">
            <mxRectangle x="-240" y="40" width="80" height="30" as="alternateBounds" />
          </mxGeometry>
        </mxCell>
        <mxCell id="FUVvW8D2CZjYxVvYTpuD-24" value="Name" style="text;strokeColor=none;fillColor=none;align=left;verticalAlign=top;spacingLeft=4;spacingRight=4;overflow=hidden;rotatable=0;points=[[0,0.5],[1,0.5]];portConstraint=eastwest;fontStyle=4;connectable=0;" vertex="1" parent="FUVvW8D2CZjYxVvYTpuD-23">
          <mxGeometry y="26" width="140" height="26" as="geometry" />
        </mxCell>
        <mxCell id="FUVvW8D2CZjYxVvYTpuD-25" value="Abbreviation" style="text;strokeColor=none;fillColor=none;align=left;verticalAlign=top;spacingLeft=4;spacingRight=4;overflow=hidden;rotatable=0;points=[[0,0.5],[1,0.5]];portConstraint=eastwest;connectable=0;" vertex="1" parent="FUVvW8D2CZjYxVvYTpuD-23">
          <mxGeometry y="52" width="140" height="26" as="geometry" />
        </mxCell>
        <mxCell id="FUVvW8D2CZjYxVvYTpuD-27" style="edgeStyle=none;comic=0;sketch=0;html=1;exitX=0.5;exitY=1;exitDx=0;exitDy=0;entryX=0.25;entryY=0;entryDx=0;entryDy=0;strokeWidth=1;startFill=1;endArrow=none;endFill=0;startSize=6;endSize=6;" edge="1" parent="1" source="FUVvW8D2CZjYxVvYTpuD-35" target="FUVvW8D2CZjYxVvYTpuD-2">
          <mxGeometry relative="1" as="geometry" />
        </mxCell>
        <mxCell id="FUVvW8D2CZjYxVvYTpuD-28" value="1..*" style="edgeLabel;html=1;align=center;verticalAlign=middle;resizable=0;points=[];" connectable="0" vertex="1" parent="FUVvW8D2CZjYxVvYTpuD-27">
          <mxGeometry x="-0.6662" y="-1" relative="1" as="geometry">
            <mxPoint as="offset" />
          </mxGeometry>
        </mxCell>
        <mxCell id="FUVvW8D2CZjYxVvYTpuD-29" value="0..*" style="edgeLabel;html=1;align=center;verticalAlign=middle;resizable=0;points=[];" connectable="0" vertex="1" parent="FUVvW8D2CZjYxVvYTpuD-27">
          <mxGeometry x="0.6995" y="1" relative="1" as="geometry">
            <mxPoint as="offset" />
          </mxGeometry>
        </mxCell>
        <mxCell id="FUVvW8D2CZjYxVvYTpuD-30" value="▲ has" style="edgeLabel;align=center;verticalAlign=middle;resizable=0;points=[];" connectable="0" vertex="1" parent="FUVvW8D2CZjYxVvYTpuD-27">
          <mxGeometry x="0.1506" relative="1" as="geometry">
            <mxPoint x="5" y="-4" as="offset" />
          </mxGeometry>
        </mxCell>
        <mxCell id="FUVvW8D2CZjYxVvYTpuD-31" style="edgeStyle=none;comic=0;sketch=0;html=1;exitX=0.5;exitY=0;exitDx=0;exitDy=0;entryX=0.5;entryY=1;entryDx=0;entryDy=0;strokeWidth=1;startFill=1;endArrow=none;endFill=0;startSize=6;endSize=6;" edge="1" parent="1" source="FUVvW8D2CZjYxVvYTpuD-35" target="FUVvW8D2CZjYxVvYTpuD-37">
          <mxGeometry relative="1" as="geometry" />
        </mxCell>
        <mxCell id="FUVvW8D2CZjYxVvYTpuD-32" value="0..*" style="edgeLabel;html=1;align=center;verticalAlign=middle;resizable=0;points=[];" connectable="0" vertex="1" parent="FUVvW8D2CZjYxVvYTpuD-31">
          <mxGeometry x="-0.7123" y="2" relative="1" as="geometry">
            <mxPoint as="offset" />
          </mxGeometry>
        </mxCell>
        <mxCell id="FUVvW8D2CZjYxVvYTpuD-33" value="0..*" style="edgeLabel;html=1;align=center;verticalAlign=middle;resizable=0;points=[];" connectable="0" vertex="1" parent="FUVvW8D2CZjYxVvYTpuD-31">
          <mxGeometry x="0.6394" y="1" relative="1" as="geometry">
            <mxPoint as="offset" />
          </mxGeometry>
        </mxCell>
        <mxCell id="FUVvW8D2CZjYxVvYTpuD-34" value="&lt;span style=&quot;font-size: 12px;&quot;&gt;▲&amp;nbsp;&lt;/span&gt;Is assigned to&amp;nbsp;" style="edgeLabel;html=1;align=center;verticalAlign=middle;resizable=0;points=[];labelBackgroundColor=default;" connectable="0" vertex="1" parent="FUVvW8D2CZjYxVvYTpuD-31">
          <mxGeometry x="-0.1298" y="1" relative="1" as="geometry">
            <mxPoint y="-2" as="offset" />
          </mxGeometry>
        </mxCell>
        <mxCell id="FUVvW8D2CZjYxVvYTpuD-35" value="Role" style="swimlane;fontStyle=0;childLayout=stackLayout;horizontal=1;startSize=26;fillColor=none;horizontalStack=0;resizeParent=1;resizeParentMax=0;resizeLast=0;collapsible=1;marginBottom=0;" vertex="1" parent="1">
          <mxGeometry x="-85" y="224.83" width="90" height="78" as="geometry">
            <mxRectangle x="250" y="180" width="70" height="30" as="alternateBounds" />
          </mxGeometry>
        </mxCell>
        <mxCell id="cFMzBzu-Q_Ah6ZHv0uT1-1" value="Id" style="text;strokeColor=none;fillColor=none;align=left;verticalAlign=top;spacingLeft=4;spacingRight=4;overflow=hidden;rotatable=0;points=[[0,0.5],[1,0.5]];portConstraint=eastwest;fontStyle=4;connectable=0;" vertex="1" parent="FUVvW8D2CZjYxVvYTpuD-35">
          <mxGeometry y="26" width="90" height="26" as="geometry" />
        </mxCell>
        <mxCell id="FUVvW8D2CZjYxVvYTpuD-36" value="Name" style="text;strokeColor=none;fillColor=none;align=left;verticalAlign=top;spacingLeft=4;spacingRight=4;overflow=hidden;rotatable=0;points=[[0,0.5],[1,0.5]];portConstraint=eastwest;fontStyle=0;connectable=0;" vertex="1" parent="FUVvW8D2CZjYxVvYTpuD-35">
          <mxGeometry y="52" width="90" height="26" as="geometry" />
        </mxCell>
        <mxCell id="FUVvW8D2CZjYxVvYTpuD-37" value="Permission" style="swimlane;fontStyle=0;childLayout=stackLayout;horizontal=1;startSize=26;fillColor=none;horizontalStack=0;resizeParent=1;resizeParentMax=0;resizeLast=0;collapsible=1;marginBottom=0;" vertex="1" parent="1">
          <mxGeometry x="-110" y="72" width="140" height="78" as="geometry">
            <mxRectangle x="250" y="85" width="100" height="30" as="alternateBounds" />
          </mxGeometry>
        </mxCell>
        <mxCell id="FUVvW8D2CZjYxVvYTpuD-38" value="Id" style="text;strokeColor=none;fillColor=none;align=left;verticalAlign=top;spacingLeft=4;spacingRight=4;overflow=hidden;rotatable=0;points=[[0,0.5],[1,0.5]];portConstraint=eastwest;fontStyle=4;connectable=0;" vertex="1" parent="FUVvW8D2CZjYxVvYTpuD-37">
          <mxGeometry y="26" width="140" height="26" as="geometry" />
        </mxCell>
        <mxCell id="SJCmVbKFH3M2zekq8A61-3" value="Name" style="text;strokeColor=none;fillColor=none;align=left;verticalAlign=top;spacingLeft=4;spacingRight=4;overflow=hidden;rotatable=0;points=[[0,0.5],[1,0.5]];portConstraint=eastwest;fontStyle=0;connectable=0;" vertex="1" parent="FUVvW8D2CZjYxVvYTpuD-37">
          <mxGeometry y="52" width="140" height="26" as="geometry" />
        </mxCell>
        <mxCell id="TCDaWI29hVGHiBamOFBC-10" style="edgeStyle=none;shape=connector;rounded=1;orthogonalLoop=1;jettySize=auto;html=1;exitX=0;exitY=0.75;exitDx=0;exitDy=0;labelBackgroundColor=default;strokeColor=default;strokeWidth=1;align=center;verticalAlign=middle;fontFamily=Helvetica;fontSize=12;fontColor=default;endArrow=none;endFill=0;startSize=6;endSize=6;entryX=1;entryY=0.25;entryDx=0;entryDy=0;" edge="1" parent="1" source="FUVvW8D2CZjYxVvYTpuD-42" target="FUVvW8D2CZjYxVvYTpuD-2">
          <mxGeometry relative="1" as="geometry">
            <mxPoint x="210" y="380" as="targetPoint" />
          </mxGeometry>
        </mxCell>
        <mxCell id="TCDaWI29hVGHiBamOFBC-11" value="0..1" style="edgeLabel;html=1;align=center;verticalAlign=middle;resizable=0;points=[];fontSize=12;fontFamily=Helvetica;fontColor=default;" vertex="1" connectable="0" parent="TCDaWI29hVGHiBamOFBC-10">
          <mxGeometry x="0.8179" y="-1" relative="1" as="geometry">
            <mxPoint x="-24" as="offset" />
          </mxGeometry>
        </mxCell>
        <mxCell id="TCDaWI29hVGHiBamOFBC-12" value="1" style="edgeLabel;html=1;align=center;verticalAlign=middle;resizable=0;points=[];fontSize=12;fontFamily=Helvetica;fontColor=default;" vertex="1" connectable="0" parent="TCDaWI29hVGHiBamOFBC-10">
          <mxGeometry x="-0.8369" y="-1" relative="1" as="geometry">
            <mxPoint as="offset" />
          </mxGeometry>
        </mxCell>
        <mxCell id="TCDaWI29hVGHiBamOFBC-13" value="is linked to&amp;nbsp;&amp;nbsp;►" style="edgeLabel;html=1;align=center;verticalAlign=middle;resizable=0;points=[];fontSize=12;fontFamily=Helvetica;fontColor=default;" vertex="1" connectable="0" parent="TCDaWI29hVGHiBamOFBC-10">
          <mxGeometry x="0.1504" y="-2" relative="1" as="geometry">
            <mxPoint as="offset" />
          </mxGeometry>
        </mxCell>
        <mxCell id="TCDaWI29hVGHiBamOFBC-53" style="edgeStyle=none;shape=connector;rounded=1;orthogonalLoop=1;jettySize=auto;html=1;entryX=0.75;entryY=1;entryDx=0;entryDy=0;labelBackgroundColor=default;strokeColor=default;strokeWidth=1;align=center;verticalAlign=middle;fontFamily=Helvetica;fontSize=12;fontColor=default;endArrow=none;endFill=0;startSize=6;endSize=6;exitX=0.75;exitY=0;exitDx=0;exitDy=0;" edge="1" parent="1" source="TCDaWI29hVGHiBamOFBC-92" target="FUVvW8D2CZjYxVvYTpuD-149">
          <mxGeometry relative="1" as="geometry">
            <mxPoint x="-30" y="1240" as="sourcePoint" />
            <Array as="points" />
          </mxGeometry>
        </mxCell>
        <mxCell id="TCDaWI29hVGHiBamOFBC-54" value="1" style="edgeLabel;html=1;align=center;verticalAlign=middle;resizable=0;points=[];fontSize=12;fontFamily=Helvetica;fontColor=default;" vertex="1" connectable="0" parent="TCDaWI29hVGHiBamOFBC-53">
          <mxGeometry x="0.9722" y="2" relative="1" as="geometry">
            <mxPoint x="2" y="14" as="offset" />
          </mxGeometry>
        </mxCell>
        <mxCell id="TCDaWI29hVGHiBamOFBC-55" value="1" style="edgeLabel;html=1;align=center;verticalAlign=middle;resizable=0;points=[];fontSize=12;fontFamily=Helvetica;fontColor=default;" vertex="1" connectable="0" parent="TCDaWI29hVGHiBamOFBC-53">
          <mxGeometry x="-0.9565" relative="1" as="geometry">
            <mxPoint y="-19" as="offset" />
          </mxGeometry>
        </mxCell>
        <mxCell id="TCDaWI29hVGHiBamOFBC-56" value="Is concerned by&amp;nbsp;▼" style="edgeLabel;html=1;align=center;verticalAlign=middle;resizable=0;points=[];fontSize=12;fontFamily=Helvetica;fontColor=default;" vertex="1" connectable="0" parent="TCDaWI29hVGHiBamOFBC-53">
          <mxGeometry x="0.6162" y="2" relative="1" as="geometry">
            <mxPoint y="19" as="offset" />
          </mxGeometry>
        </mxCell>
        <mxCell id="FUVvW8D2CZjYxVvYTpuD-42" value="Employee" style="swimlane;fontStyle=0;childLayout=stackLayout;horizontal=1;startSize=26;fillColor=none;horizontalStack=0;resizeParent=1;resizeParentMax=0;resizeLast=0;collapsible=1;marginBottom=0;fixDash=0;portConstraintRotation=0;connectable=1;allowArrows=1;" vertex="1" parent="1">
          <mxGeometry x="480" y="320" width="140" height="78" as="geometry">
            <mxRectangle x="480" y="320" width="90" height="30" as="alternateBounds" />
          </mxGeometry>
        </mxCell>
        <mxCell id="TCDaWI29hVGHiBamOFBC-20" value="Salary" style="text;strokeColor=none;fillColor=none;align=left;verticalAlign=top;spacingLeft=4;spacingRight=4;overflow=hidden;rotatable=0;points=[[0,0.5],[1,0.5]];portConstraint=eastwest;connectable=0;" vertex="1" parent="FUVvW8D2CZjYxVvYTpuD-42">
          <mxGeometry y="26" width="140" height="26" as="geometry" />
        </mxCell>
        <mxCell id="TCDaWI29hVGHiBamOFBC-21" value="Rate" style="text;strokeColor=none;fillColor=none;align=left;verticalAlign=top;spacingLeft=4;spacingRight=4;overflow=hidden;rotatable=0;points=[[0,0.5],[1,0.5]];portConstraint=eastwest;connectable=0;" vertex="1" parent="FUVvW8D2CZjYxVvYTpuD-42">
          <mxGeometry y="52" width="140" height="26" as="geometry" />
        </mxCell>
        <mxCell id="FUVvW8D2CZjYxVvYTpuD-43" value="" style="endArrow=blockThin;html=1;endFill=0;strokeWidth=1;startSize=6;arcSize=20;endSize=15;sourcePortConstraint=north;orthogonal=1;fixDash=0;backgroundOutline=0;noJump=0;flowAnimation=0;ignoreEdge=0;orthogonalLoop=0;enumerate=0;comic=0;bendable=1;metaEdit=0;snapToPoint=1;anchorPointDirection=1;startFill=1;targetPortConstraint=south;exitX=0.5;exitY=0;exitDx=0;exitDy=0;entryX=0.5;entryY=1;entryDx=0;entryDy=0;" edge="1" parent="1" source="FUVvW8D2CZjYxVvYTpuD-42" target="FUVvW8D2CZjYxVvYTpuD-8">
          <mxGeometry width="50" height="50" relative="1" as="geometry">
            <mxPoint x="330" y="330" as="sourcePoint" />
            <mxPoint x="460" y="90" as="targetPoint" />
            <Array as="points" />
          </mxGeometry>
        </mxCell>
        <mxCell id="FUVvW8D2CZjYxVvYTpuD-48" value="" style="endArrow=blockThin;html=1;endFill=0;strokeWidth=1;startSize=6;arcSize=20;endSize=15;sourcePortConstraint=north;orthogonal=1;fixDash=0;backgroundOutline=0;noJump=0;flowAnimation=0;ignoreEdge=0;orthogonalLoop=0;enumerate=0;comic=0;bendable=1;metaEdit=0;snapToPoint=1;anchorPointDirection=1;startFill=1;targetPortConstraint=south;sketch=0;exitX=0.25;exitY=0;exitDx=0;exitDy=0;entryX=0.5;entryY=1;entryDx=0;entryDy=0;" edge="1" parent="1" source="FUVvW8D2CZjYxVvYTpuD-1" target="FUVvW8D2CZjYxVvYTpuD-8">
          <mxGeometry width="50" height="50" relative="1" as="geometry">
            <mxPoint x="760" y="270" as="sourcePoint" />
            <mxPoint x="580" y="230" as="targetPoint" />
            <Array as="points">
              <mxPoint x="846" y="280" />
              <mxPoint x="550" y="280" />
            </Array>
          </mxGeometry>
        </mxCell>
        <mxCell id="FUVvW8D2CZjYxVvYTpuD-49" style="edgeStyle=none;shape=connector;rounded=1;html=1;exitX=0.5;exitY=1;exitDx=0;exitDy=0;labelBackgroundColor=default;strokeColor=default;strokeWidth=1;fontFamily=Helvetica;fontSize=12;fontColor=default;endArrow=none;endFill=0;startSize=6;endSize=6;" edge="1" parent="1" source="FUVvW8D2CZjYxVvYTpuD-57" target="FUVvW8D2CZjYxVvYTpuD-69">
          <mxGeometry relative="1" as="geometry">
            <Array as="points">
              <mxPoint x="550" y="690" />
            </Array>
          </mxGeometry>
        </mxCell>
        <mxCell id="FUVvW8D2CZjYxVvYTpuD-50" value="1..*" style="edgeLabel;html=1;align=center;verticalAlign=middle;resizable=0;points=[];fontSize=12;fontFamily=Helvetica;fontColor=default;" connectable="0" vertex="1" parent="FUVvW8D2CZjYxVvYTpuD-49">
          <mxGeometry x="-0.7503" relative="1" as="geometry">
            <mxPoint y="-87" as="offset" />
          </mxGeometry>
        </mxCell>
        <mxCell id="FUVvW8D2CZjYxVvYTpuD-51" value="1" style="edgeLabel;html=1;align=center;verticalAlign=middle;resizable=0;points=[];fontSize=12;fontFamily=Helvetica;fontColor=default;" connectable="0" vertex="1" parent="FUVvW8D2CZjYxVvYTpuD-49">
          <mxGeometry x="0.6544" relative="1" as="geometry">
            <mxPoint x="-125" y="-9" as="offset" />
          </mxGeometry>
        </mxCell>
        <mxCell id="FUVvW8D2CZjYxVvYTpuD-52" value="&lt;span style=&quot;&quot;&gt;◄&amp;nbsp;&lt;/span&gt;Is part of&amp;nbsp;" style="edgeLabel;html=1;align=center;verticalAlign=middle;resizable=0;points=[];fontSize=12;fontFamily=Helvetica;fontColor=default;labelBackgroundColor=default;" connectable="0" vertex="1" parent="FUVvW8D2CZjYxVvYTpuD-49">
          <mxGeometry x="-0.3266" relative="1" as="geometry">
            <mxPoint y="12" as="offset" />
          </mxGeometry>
        </mxCell>
        <mxCell id="TCDaWI29hVGHiBamOFBC-48" style="edgeStyle=none;shape=connector;rounded=1;orthogonalLoop=1;jettySize=auto;html=1;exitX=0.25;exitY=0;exitDx=0;exitDy=0;labelBackgroundColor=default;strokeColor=default;strokeWidth=1;align=center;verticalAlign=middle;fontFamily=Helvetica;fontSize=12;fontColor=default;endArrow=none;endFill=0;startSize=6;endSize=6;entryX=1;entryY=0.25;entryDx=0;entryDy=0;" edge="1" parent="1" source="FUVvW8D2CZjYxVvYTpuD-57" target="TCDaWI29hVGHiBamOFBC-96">
          <mxGeometry relative="1" as="geometry">
            <mxPoint x="200" y="160" as="targetPoint" />
            <Array as="points">
              <mxPoint x="515" y="462" />
            </Array>
          </mxGeometry>
        </mxCell>
        <mxCell id="TCDaWI29hVGHiBamOFBC-49" value="1" style="edgeLabel;html=1;align=center;verticalAlign=middle;resizable=0;points=[];fontSize=12;fontFamily=Helvetica;fontColor=default;" vertex="1" connectable="0" parent="TCDaWI29hVGHiBamOFBC-48">
          <mxGeometry x="-0.9391" relative="1" as="geometry">
            <mxPoint y="-4" as="offset" />
          </mxGeometry>
        </mxCell>
        <mxCell id="TCDaWI29hVGHiBamOFBC-50" value="1..*" style="edgeLabel;html=1;align=center;verticalAlign=middle;resizable=0;points=[];fontSize=12;fontFamily=Helvetica;fontColor=default;" vertex="1" connectable="0" parent="TCDaWI29hVGHiBamOFBC-48">
          <mxGeometry x="0.9555" y="-1" relative="1" as="geometry">
            <mxPoint x="16" as="offset" />
          </mxGeometry>
        </mxCell>
        <mxCell id="TCDaWI29hVGHiBamOFBC-97" value="Is relative to&amp;nbsp;►" style="edgeLabel;html=1;align=center;verticalAlign=middle;resizable=0;points=[];fontSize=12;fontFamily=Helvetica;fontColor=default;" vertex="1" connectable="0" parent="TCDaWI29hVGHiBamOFBC-48">
          <mxGeometry x="0.1058" y="-1" relative="1" as="geometry">
            <mxPoint as="offset" />
          </mxGeometry>
        </mxCell>
        <mxCell id="FUVvW8D2CZjYxVvYTpuD-57" value="Franchise" style="swimlane;fontStyle=0;childLayout=stackLayout;horizontal=1;startSize=26;fillColor=none;horizontalStack=0;resizeParent=1;resizeParentMax=0;resizeLast=0;collapsible=1;marginBottom=0;fixDash=0;portConstraintRotation=0;connectable=1;allowArrows=1;" vertex="1" parent="1">
          <mxGeometry x="480" y="510" width="140" height="78" as="geometry">
            <mxRectangle x="480" y="510" width="90" height="30" as="alternateBounds" />
          </mxGeometry>
        </mxCell>
        <mxCell id="FUVvW8D2CZjYxVvYTpuD-58" value="Id" style="text;strokeColor=none;fillColor=none;align=left;verticalAlign=top;spacingLeft=4;spacingRight=4;overflow=hidden;rotatable=0;points=[[0,0.5],[1,0.5]];portConstraint=eastwest;connectable=0;fontStyle=4" vertex="1" parent="FUVvW8D2CZjYxVvYTpuD-57">
          <mxGeometry y="26" width="140" height="26" as="geometry" />
        </mxCell>
        <mxCell id="FUVvW8D2CZjYxVvYTpuD-59" value="Address" style="text;strokeColor=none;fillColor=none;align=left;verticalAlign=top;spacingLeft=4;spacingRight=4;overflow=hidden;rotatable=0;points=[[0,0.5],[1,0.5]];portConstraint=eastwest;connectable=0;fontStyle=0" vertex="1" parent="FUVvW8D2CZjYxVvYTpuD-57">
          <mxGeometry y="52" width="140" height="26" as="geometry" />
        </mxCell>
        <mxCell id="FUVvW8D2CZjYxVvYTpuD-60" value="" style="edgeStyle=none;strokeWidth=1;endArrow=none;endFill=0;startSize=6;endSize=6;orthogonal=1;entryX=0.75;entryY=1;entryDx=0;entryDy=0;labelBorderColor=none;" edge="1" parent="1" target="FUVvW8D2CZjYxVvYTpuD-16">
          <mxGeometry relative="1" as="geometry">
            <mxPoint x="480" y="524" as="sourcePoint" />
            <mxPoint x="50" y="130" as="targetPoint" />
            <Array as="points">
              <mxPoint x="-160" y="524" />
              <mxPoint x="-160" y="190" />
            </Array>
          </mxGeometry>
        </mxCell>
        <mxCell id="FUVvW8D2CZjYxVvYTpuD-61" value="◄ Is in" style="edgeLabel;align=center;verticalAlign=middle;resizable=0;points=[];" connectable="0" vertex="1" parent="FUVvW8D2CZjYxVvYTpuD-60">
          <mxGeometry x="-0.1462" y="-2" relative="1" as="geometry">
            <mxPoint x="99" y="-2" as="offset" />
          </mxGeometry>
        </mxCell>
        <mxCell id="FUVvW8D2CZjYxVvYTpuD-63" value="1" style="edgeLabel;html=1;align=center;verticalAlign=middle;resizable=0;points=[];fontSize=12;fontFamily=Helvetica;fontColor=default;" connectable="0" vertex="1" parent="FUVvW8D2CZjYxVvYTpuD-60">
          <mxGeometry x="0.9408" y="-1" relative="1" as="geometry">
            <mxPoint y="-19" as="offset" />
          </mxGeometry>
        </mxCell>
        <mxCell id="FUVvW8D2CZjYxVvYTpuD-64" value="0..*" style="edgeLabel;html=1;align=center;verticalAlign=middle;resizable=0;points=[];fontSize=12;fontFamily=Helvetica;fontColor=default;" connectable="0" vertex="1" parent="FUVvW8D2CZjYxVvYTpuD-60">
          <mxGeometry x="-0.9713" y="1" relative="1" as="geometry">
            <mxPoint x="-8" as="offset" />
          </mxGeometry>
        </mxCell>
        <mxCell id="FUVvW8D2CZjYxVvYTpuD-65" value="" style="edgeStyle=none;entryX=0.5;entryY=0;entryDx=0;entryDy=0;strokeWidth=1;endArrow=none;endFill=0;startSize=6;endSize=6;orthogonal=1;exitX=0.5;exitY=1;exitDx=0;exitDy=0;labelBackgroundColor=default;fontColor=default;" edge="1" parent="1" source="FUVvW8D2CZjYxVvYTpuD-42" target="FUVvW8D2CZjYxVvYTpuD-57">
          <mxGeometry relative="1" as="geometry">
            <mxPoint x="515" y="430" as="sourcePoint" />
            <mxPoint x="125" y="430" as="targetPoint" />
          </mxGeometry>
        </mxCell>
        <mxCell id="FUVvW8D2CZjYxVvYTpuD-66" value="Work for  ▼" style="edgeLabel;align=center;verticalAlign=middle;resizable=0;points=[];" connectable="0" vertex="1" parent="FUVvW8D2CZjYxVvYTpuD-65">
          <mxGeometry x="-0.1462" y="-2" relative="1" as="geometry">
            <mxPoint as="offset" />
          </mxGeometry>
        </mxCell>
        <mxCell id="FUVvW8D2CZjYxVvYTpuD-67" value="1..*" style="edgeLabel;html=1;align=center;verticalAlign=middle;resizable=0;points=[];fontSize=12;fontFamily=Helvetica;fontColor=default;" connectable="0" vertex="1" parent="FUVvW8D2CZjYxVvYTpuD-65">
          <mxGeometry x="-0.7937" y="1" relative="1" as="geometry">
            <mxPoint as="offset" />
          </mxGeometry>
        </mxCell>
        <mxCell id="FUVvW8D2CZjYxVvYTpuD-68" value="1" style="edgeLabel;html=1;align=center;verticalAlign=middle;resizable=0;points=[];fontSize=12;fontFamily=Helvetica;fontColor=default;" connectable="0" vertex="1" parent="FUVvW8D2CZjYxVvYTpuD-65">
          <mxGeometry x="0.6807" y="-1" relative="1" as="geometry">
            <mxPoint as="offset" />
          </mxGeometry>
        </mxCell>
        <mxCell id="FUVvW8D2CZjYxVvYTpuD-69" value="Strucutre" style="swimlane;fontStyle=0;childLayout=stackLayout;horizontal=1;startSize=26;fillColor=none;horizontalStack=0;resizeParent=1;resizeParentMax=0;resizeLast=0;collapsible=1;marginBottom=0;fixDash=0;portConstraintRotation=0;connectable=1;allowArrows=1;" vertex="1" parent="1">
          <mxGeometry x="-282.78" y="649.82" width="140" height="78" as="geometry">
            <mxRectangle x="480" y="510" width="90" height="30" as="alternateBounds" />
          </mxGeometry>
        </mxCell>
        <mxCell id="FUVvW8D2CZjYxVvYTpuD-70" value="Name" style="text;strokeColor=none;fillColor=none;align=left;verticalAlign=top;spacingLeft=4;spacingRight=4;overflow=hidden;rotatable=0;points=[[0,0.5],[1,0.5]];portConstraint=eastwest;connectable=0;fontStyle=4" vertex="1" parent="FUVvW8D2CZjYxVvYTpuD-69">
          <mxGeometry y="26" width="140" height="26" as="geometry" />
        </mxCell>
        <mxCell id="FUVvW8D2CZjYxVvYTpuD-71" value="HeadOfficeAddress" style="text;strokeColor=none;fillColor=none;align=left;verticalAlign=top;spacingLeft=4;spacingRight=4;overflow=hidden;rotatable=0;points=[[0,0.5],[1,0.5]];portConstraint=eastwest;connectable=0;" vertex="1" parent="FUVvW8D2CZjYxVvYTpuD-69">
          <mxGeometry y="52" width="140" height="26" as="geometry" />
        </mxCell>
        <mxCell id="FUVvW8D2CZjYxVvYTpuD-72" style="edgeStyle=none;html=1;strokeWidth=1;endArrow=none;endFill=0;startSize=6;endSize=6;orthogonal=1;exitX=0.25;exitY=0;exitDx=0;exitDy=0;" edge="1" parent="1" source="FUVvW8D2CZjYxVvYTpuD-69">
          <mxGeometry relative="1" as="geometry">
            <mxPoint x="490" y="534" as="sourcePoint" />
            <mxPoint x="-248" y="120" as="targetPoint" />
            <Array as="points" />
          </mxGeometry>
        </mxCell>
        <mxCell id="FUVvW8D2CZjYxVvYTpuD-73" value="▲ Is in" style="edgeLabel;align=center;verticalAlign=middle;resizable=0;points=[];" connectable="0" vertex="1" parent="FUVvW8D2CZjYxVvYTpuD-72">
          <mxGeometry x="-0.1462" y="-2" relative="1" as="geometry">
            <mxPoint x="-2" y="-27" as="offset" />
          </mxGeometry>
        </mxCell>
        <mxCell id="FUVvW8D2CZjYxVvYTpuD-74" value="1" style="edgeLabel;html=1;align=center;verticalAlign=middle;resizable=0;points=[];fontSize=12;fontFamily=Helvetica;fontColor=default;" connectable="0" vertex="1" parent="FUVvW8D2CZjYxVvYTpuD-72">
          <mxGeometry x="0.9408" y="-1" relative="1" as="geometry">
            <mxPoint x="-23" y="-6" as="offset" />
          </mxGeometry>
        </mxCell>
        <mxCell id="FUVvW8D2CZjYxVvYTpuD-75" value="0..*" style="edgeLabel;html=1;align=center;verticalAlign=middle;resizable=0;points=[];fontSize=12;fontFamily=Helvetica;fontColor=default;" connectable="0" vertex="1" parent="FUVvW8D2CZjYxVvYTpuD-72">
          <mxGeometry x="-0.9713" y="1" relative="1" as="geometry">
            <mxPoint x="-8" as="offset" />
          </mxGeometry>
        </mxCell>
        <mxCell id="TCDaWI29hVGHiBamOFBC-30" style="edgeStyle=none;shape=connector;rounded=1;orthogonalLoop=1;jettySize=auto;html=1;exitX=0.5;exitY=0;exitDx=0;exitDy=0;entryX=0.997;entryY=0.138;entryDx=0;entryDy=0;labelBackgroundColor=default;strokeColor=default;strokeWidth=1;align=center;verticalAlign=middle;fontFamily=Helvetica;fontSize=12;fontColor=default;endArrow=none;endFill=0;startSize=6;endSize=6;entryPerimeter=0;" edge="1" parent="1" source="FUVvW8D2CZjYxVvYTpuD-76" target="FUVvW8D2CZjYxVvYTpuD-114">
          <mxGeometry relative="1" as="geometry">
            <Array as="points">
              <mxPoint x="1121" y="170" />
            </Array>
          </mxGeometry>
        </mxCell>
        <mxCell id="TCDaWI29hVGHiBamOFBC-34" value="1" style="edgeLabel;html=1;align=center;verticalAlign=middle;resizable=0;points=[];fontSize=12;fontFamily=Helvetica;fontColor=default;" vertex="1" connectable="0" parent="TCDaWI29hVGHiBamOFBC-30">
          <mxGeometry x="-0.8924" relative="1" as="geometry">
            <mxPoint y="-7" as="offset" />
          </mxGeometry>
        </mxCell>
        <mxCell id="TCDaWI29hVGHiBamOFBC-35" value="0..*" style="edgeLabel;html=1;align=center;verticalAlign=middle;resizable=0;points=[];fontSize=12;fontFamily=Helvetica;fontColor=default;" vertex="1" connectable="0" parent="TCDaWI29hVGHiBamOFBC-30">
          <mxGeometry x="0.904" relative="1" as="geometry">
            <mxPoint x="8" as="offset" />
          </mxGeometry>
        </mxCell>
        <mxCell id="llPPeMHtx-DtPn5ioxyx-16" value="is consummed▲" style="edgeLabel;html=1;align=center;verticalAlign=middle;resizable=0;points=[];" connectable="0" vertex="1" parent="TCDaWI29hVGHiBamOFBC-30">
          <mxGeometry x="-0.0579" relative="1" as="geometry">
            <mxPoint as="offset" />
          </mxGeometry>
        </mxCell>
        <mxCell id="FUVvW8D2CZjYxVvYTpuD-76" value="Product" style="swimlane;fontStyle=0;childLayout=stackLayout;horizontal=1;startSize=26;fillColor=none;horizontalStack=0;resizeParent=1;resizeParentMax=0;resizeLast=0;collapsible=1;marginBottom=0;" vertex="1" parent="1">
          <mxGeometry x="1050.76" y="320" width="140" height="104" as="geometry">
            <mxRectangle x="480" y="20" width="80" height="60" as="alternateBounds" />
          </mxGeometry>
        </mxCell>
        <mxCell id="FUVvW8D2CZjYxVvYTpuD-77" value="Code" style="text;strokeColor=none;fillColor=none;align=left;verticalAlign=top;spacingLeft=4;spacingRight=4;overflow=hidden;rotatable=0;points=[[0,0.5],[1,0.5]];portConstraint=eastwest;fontStyle=4;connectable=0;" vertex="1" parent="FUVvW8D2CZjYxVvYTpuD-76">
          <mxGeometry y="26" width="140" height="26" as="geometry" />
        </mxCell>
        <mxCell id="FUVvW8D2CZjYxVvYTpuD-78" value="Name" style="text;strokeColor=none;fillColor=none;align=left;verticalAlign=top;spacingLeft=4;spacingRight=4;overflow=hidden;rotatable=0;points=[[0,0.5],[1,0.5]];portConstraint=eastwest;connectable=0;" vertex="1" parent="FUVvW8D2CZjYxVvYTpuD-76">
          <mxGeometry y="52" width="140" height="26" as="geometry" />
        </mxCell>
        <mxCell id="FUVvW8D2CZjYxVvYTpuD-79" value="Price" style="text;strokeColor=none;fillColor=none;align=left;verticalAlign=top;spacingLeft=4;spacingRight=4;overflow=hidden;rotatable=0;points=[[0,0.5],[1,0.5]];portConstraint=eastwest;connectable=0;" vertex="1" parent="FUVvW8D2CZjYxVvYTpuD-76">
          <mxGeometry y="78" width="140" height="26" as="geometry" />
        </mxCell>
        <mxCell id="FUVvW8D2CZjYxVvYTpuD-80" style="edgeStyle=none;shape=connector;rounded=1;html=1;entryX=1;entryY=0.75;entryDx=0;entryDy=0;labelBackgroundColor=default;strokeColor=default;strokeWidth=1;fontFamily=Helvetica;fontSize=12;fontColor=default;endArrow=none;endFill=0;startSize=6;endSize=6;exitX=0;exitY=0.382;exitDx=0;exitDy=0;exitPerimeter=0;" edge="1" parent="1" source="FUVvW8D2CZjYxVvYTpuD-89" target="FUVvW8D2CZjYxVvYTpuD-69">
          <mxGeometry relative="1" as="geometry">
            <mxPoint x="870" y="530" as="sourcePoint" />
            <Array as="points">
              <mxPoint x="850" y="530" />
              <mxPoint x="850" y="640" />
              <mxPoint x="650" y="640" />
              <mxPoint x="650" y="708" />
            </Array>
          </mxGeometry>
        </mxCell>
        <mxCell id="FUVvW8D2CZjYxVvYTpuD-81" value="&lt;span style=&quot;&quot;&gt;◄&amp;nbsp;&lt;/span&gt;Is relative to&amp;nbsp;" style="edgeLabel;html=1;align=center;verticalAlign=middle;resizable=0;points=[];fontSize=12;fontFamily=Helvetica;fontColor=default;labelBackgroundColor=default;" connectable="0" vertex="1" parent="FUVvW8D2CZjYxVvYTpuD-80">
          <mxGeometry x="0.1263" y="-2" relative="1" as="geometry">
            <mxPoint as="offset" />
          </mxGeometry>
        </mxCell>
        <mxCell id="FUVvW8D2CZjYxVvYTpuD-82" value="1" style="edgeLabel;html=1;align=center;verticalAlign=middle;resizable=0;points=[];fontSize=12;fontFamily=Helvetica;fontColor=default;" connectable="0" vertex="1" parent="FUVvW8D2CZjYxVvYTpuD-80">
          <mxGeometry x="0.9063" y="-2" relative="1" as="geometry">
            <mxPoint as="offset" />
          </mxGeometry>
        </mxCell>
        <mxCell id="FUVvW8D2CZjYxVvYTpuD-83" value="0..*" style="edgeLabel;html=1;align=center;verticalAlign=middle;resizable=0;points=[];fontSize=12;fontFamily=Helvetica;fontColor=default;" connectable="0" vertex="1" parent="FUVvW8D2CZjYxVvYTpuD-80">
          <mxGeometry x="-0.7834" relative="1" as="geometry">
            <mxPoint y="-80" as="offset" />
          </mxGeometry>
        </mxCell>
        <mxCell id="FUVvW8D2CZjYxVvYTpuD-89" value="Entry" style="swimlane;fontStyle=0;childLayout=stackLayout;horizontal=1;startSize=26;fillColor=none;horizontalStack=0;resizeParent=1;resizeParentMax=0;resizeLast=0;collapsible=1;marginBottom=0;fixDash=0;portConstraintRotation=0;connectable=1;allowArrows=1;" vertex="1" parent="1">
          <mxGeometry x="879.62" y="510" width="140" height="52" as="geometry">
            <mxRectangle x="480" y="320" width="90" height="30" as="alternateBounds" />
          </mxGeometry>
        </mxCell>
        <mxCell id="FUVvW8D2CZjYxVvYTpuD-90" value="SubscriptionDate" style="text;strokeColor=none;fillColor=none;align=left;verticalAlign=top;spacingLeft=4;spacingRight=4;overflow=hidden;rotatable=0;points=[[0,0.5],[1,0.5]];portConstraint=eastwest;connectable=0;fontStyle=0" vertex="1" parent="FUVvW8D2CZjYxVvYTpuD-89">
          <mxGeometry y="26" width="140" height="26" as="geometry" />
        </mxCell>
        <mxCell id="FUVvW8D2CZjYxVvYTpuD-92" value="" style="endArrow=blockThin;html=1;endFill=0;strokeWidth=1;startSize=6;arcSize=20;endSize=15;sourcePortConstraint=north;orthogonal=1;fixDash=0;backgroundOutline=0;noJump=0;flowAnimation=0;ignoreEdge=0;orthogonalLoop=0;enumerate=0;comic=0;bendable=1;metaEdit=0;snapToPoint=1;anchorPointDirection=1;startFill=1;targetPortConstraint=south;exitX=0.75;exitY=0;exitDx=0;exitDy=0;entryX=0.5;entryY=1;entryDx=0;entryDy=0;" edge="1" parent="1" source="FUVvW8D2CZjYxVvYTpuD-89" target="FUVvW8D2CZjYxVvYTpuD-76">
          <mxGeometry width="50" height="50" relative="1" as="geometry">
            <mxPoint x="1030.76" y="506" as="sourcePoint" />
            <mxPoint x="1030.76" y="414.0000000000002" as="targetPoint" />
            <Array as="points">
              <mxPoint x="985" y="460" />
              <mxPoint x="1120.76" y="460" />
            </Array>
          </mxGeometry>
        </mxCell>
        <mxCell id="FUVvW8D2CZjYxVvYTpuD-97" value="consumables" style="swimlane;fontStyle=0;childLayout=stackLayout;horizontal=1;startSize=26;fillColor=none;horizontalStack=0;resizeParent=1;resizeParentMax=0;resizeLast=0;collapsible=1;marginBottom=0;fixDash=0;portConstraintRotation=0;connectable=1;allowArrows=1;" vertex="1" parent="1">
          <mxGeometry x="1170.76" y="510" width="140" height="52" as="geometry">
            <mxRectangle x="480" y="320" width="90" height="30" as="alternateBounds" />
          </mxGeometry>
        </mxCell>
        <mxCell id="FUVvW8D2CZjYxVvYTpuD-99" value="" style="endArrow=blockThin;html=1;endFill=0;strokeWidth=1;startSize=6;arcSize=20;endSize=15;sourcePortConstraint=north;orthogonal=1;fixDash=0;backgroundOutline=0;noJump=0;flowAnimation=0;ignoreEdge=0;orthogonalLoop=0;enumerate=0;comic=0;bendable=1;metaEdit=0;snapToPoint=1;anchorPointDirection=1;startFill=1;targetPortConstraint=south;rounded=1;labelBackgroundColor=default;strokeColor=default;fontFamily=Helvetica;fontSize=12;fontColor=default;shape=connector;entryX=0.5;entryY=1;entryDx=0;entryDy=0;exitX=0.5;exitY=0;exitDx=0;exitDy=0;" edge="1" parent="1" source="FUVvW8D2CZjYxVvYTpuD-97" target="FUVvW8D2CZjYxVvYTpuD-76">
          <mxGeometry width="50" height="50" relative="1" as="geometry">
            <mxPoint x="1370.76" y="729.9999999999999" as="sourcePoint" />
            <mxPoint x="1120.76" y="420" as="targetPoint" />
            <Array as="points">
              <mxPoint x="1240.76" y="460" />
              <mxPoint x="1120.76" y="460" />
            </Array>
          </mxGeometry>
        </mxCell>
        <mxCell id="FUVvW8D2CZjYxVvYTpuD-100" style="edgeStyle=none;shape=connector;rounded=1;html=1;exitX=0.998;exitY=0.424;exitDx=0;exitDy=0;entryX=0;entryY=0.5;entryDx=0;entryDy=0;labelBackgroundColor=default;strokeColor=default;strokeWidth=1;fontFamily=Helvetica;fontSize=12;fontColor=default;endArrow=none;endFill=0;startSize=6;endSize=6;exitPerimeter=0;" edge="1" parent="1" source="TCDaWI29hVGHiBamOFBC-101" target="FUVvW8D2CZjYxVvYTpuD-168">
          <mxGeometry relative="1" as="geometry" />
        </mxCell>
        <mxCell id="FUVvW8D2CZjYxVvYTpuD-101" value="1" style="edgeLabel;html=1;align=center;verticalAlign=middle;resizable=0;points=[];fontSize=12;fontFamily=Helvetica;fontColor=default;" connectable="0" vertex="1" parent="FUVvW8D2CZjYxVvYTpuD-100">
          <mxGeometry x="-0.9415" relative="1" as="geometry">
            <mxPoint x="7" as="offset" />
          </mxGeometry>
        </mxCell>
        <mxCell id="FUVvW8D2CZjYxVvYTpuD-102" value="0..*" style="edgeLabel;html=1;align=center;verticalAlign=middle;resizable=0;points=[];fontSize=12;fontFamily=Helvetica;fontColor=default;" connectable="0" vertex="1" parent="FUVvW8D2CZjYxVvYTpuD-100">
          <mxGeometry x="0.9566" y="-2" relative="1" as="geometry">
            <mxPoint x="-18" y="-1" as="offset" />
          </mxGeometry>
        </mxCell>
        <mxCell id="FUVvW8D2CZjYxVvYTpuD-103" value="Teach&amp;nbsp;►" style="edgeLabel;html=1;align=center;verticalAlign=middle;resizable=0;points=[];fontSize=12;fontFamily=Helvetica;fontColor=default;labelBackgroundColor=default;" connectable="0" vertex="1" parent="FUVvW8D2CZjYxVvYTpuD-100">
          <mxGeometry x="-0.4469" y="-3" relative="1" as="geometry">
            <mxPoint x="27" y="9" as="offset" />
          </mxGeometry>
        </mxCell>
        <mxCell id="FUVvW8D2CZjYxVvYTpuD-104" value="Coach" style="swimlane;fontStyle=0;childLayout=stackLayout;horizontal=1;startSize=26;fillColor=#f8cecc;horizontalStack=0;resizeParent=1;resizeParentMax=0;resizeLast=0;collapsible=1;marginBottom=0;fixDash=0;portConstraintRotation=0;connectable=1;allowArrows=1;strokeColor=#b85450;" vertex="1" parent="1">
          <mxGeometry x="640" y="449" width="140" height="52" as="geometry">
            <mxRectangle x="700" y="320" width="90" height="30" as="alternateBounds" />
          </mxGeometry>
        </mxCell>
        <mxCell id="TCDaWI29hVGHiBamOFBC-22" value="Specialization" style="text;strokeColor=none;fillColor=none;align=left;verticalAlign=top;spacingLeft=4;spacingRight=4;overflow=hidden;rotatable=0;points=[[0,0.5],[1,0.5]];portConstraint=eastwest;connectable=0;" vertex="1" parent="FUVvW8D2CZjYxVvYTpuD-104">
          <mxGeometry y="26" width="140" height="26" as="geometry" />
        </mxCell>
        <mxCell id="FUVvW8D2CZjYxVvYTpuD-105" value="" style="endArrow=blockThin;html=1;endFill=0;strokeWidth=1;startSize=6;arcSize=20;endSize=15;sourcePortConstraint=north;orthogonal=1;fixDash=0;backgroundOutline=0;noJump=0;flowAnimation=0;ignoreEdge=0;orthogonalLoop=0;enumerate=0;comic=0;bendable=1;metaEdit=0;snapToPoint=1;anchorPointDirection=1;startFill=1;targetPortConstraint=south;entryX=0.75;entryY=1;entryDx=0;entryDy=0;exitX=0.25;exitY=0;exitDx=0;exitDy=0;" edge="1" parent="1" source="FUVvW8D2CZjYxVvYTpuD-104" target="FUVvW8D2CZjYxVvYTpuD-42">
          <mxGeometry width="50" height="50" relative="1" as="geometry">
            <mxPoint x="670" y="420" as="sourcePoint" />
            <mxPoint x="640" y="372" as="targetPoint" />
            <Array as="points">
              <mxPoint x="675" y="430" />
              <mxPoint x="585" y="430" />
            </Array>
          </mxGeometry>
        </mxCell>
        <mxCell id="TCDaWI29hVGHiBamOFBC-29" style="edgeStyle=none;shape=connector;rounded=1;orthogonalLoop=1;jettySize=auto;html=1;exitX=0.5;exitY=1;exitDx=0;exitDy=0;entryX=0.5;entryY=0;entryDx=0;entryDy=0;labelBackgroundColor=default;strokeColor=default;strokeWidth=1;align=center;verticalAlign=middle;fontFamily=Helvetica;fontSize=12;fontColor=default;endArrow=none;endFill=0;startSize=6;endSize=6;" edge="1" parent="1" source="FUVvW8D2CZjYxVvYTpuD-112" target="FUVvW8D2CZjYxVvYTpuD-114">
          <mxGeometry relative="1" as="geometry" />
        </mxCell>
        <mxCell id="TCDaWI29hVGHiBamOFBC-32" value="1" style="edgeLabel;html=1;align=center;verticalAlign=middle;resizable=0;points=[];fontSize=12;fontFamily=Helvetica;fontColor=default;" vertex="1" connectable="0" parent="TCDaWI29hVGHiBamOFBC-29">
          <mxGeometry x="-0.7395" relative="1" as="geometry">
            <mxPoint as="offset" />
          </mxGeometry>
        </mxCell>
        <mxCell id="TCDaWI29hVGHiBamOFBC-36" value="1..*" style="edgeLabel;html=1;align=center;verticalAlign=middle;resizable=0;points=[];fontSize=12;fontFamily=Helvetica;fontColor=default;" vertex="1" connectable="0" parent="TCDaWI29hVGHiBamOFBC-29">
          <mxGeometry x="0.519" y="1" relative="1" as="geometry">
            <mxPoint as="offset" />
          </mxGeometry>
        </mxCell>
        <mxCell id="TCDaWI29hVGHiBamOFBC-85" value="Is stored in&amp;nbsp;&amp;nbsp;▲" style="edgeLabel;html=1;align=center;verticalAlign=middle;resizable=0;points=[];fontSize=12;fontFamily=Helvetica;fontColor=default;" vertex="1" connectable="0" parent="TCDaWI29hVGHiBamOFBC-29">
          <mxGeometry x="-0.1051" y="-1" relative="1" as="geometry">
            <mxPoint as="offset" />
          </mxGeometry>
        </mxCell>
        <mxCell id="FUVvW8D2CZjYxVvYTpuD-112" value="MemberAccount" style="swimlane;fontStyle=0;childLayout=stackLayout;horizontal=1;startSize=26;fillColor=none;horizontalStack=0;resizeParent=1;resizeParentMax=0;resizeLast=0;collapsible=1;marginBottom=0;" vertex="1" parent="1">
          <mxGeometry x="879.62" y="-6" width="140" height="104" as="geometry">
            <mxRectangle x="480" y="20" width="80" height="60" as="alternateBounds" />
          </mxGeometry>
        </mxCell>
        <mxCell id="SJCmVbKFH3M2zekq8A61-11" value="Id" style="text;strokeColor=none;fillColor=none;align=left;verticalAlign=top;spacingLeft=4;spacingRight=4;overflow=hidden;rotatable=0;points=[[0,0.5],[1,0.5]];portConstraint=eastwest;fontStyle=4;connectable=0;" vertex="1" parent="FUVvW8D2CZjYxVvYTpuD-112">
          <mxGeometry y="26" width="140" height="26" as="geometry" />
        </mxCell>
        <mxCell id="TCDaWI29hVGHiBamOFBC-37" value="Credit" style="text;strokeColor=none;fillColor=none;align=left;verticalAlign=top;spacingLeft=4;spacingRight=4;overflow=hidden;rotatable=0;points=[[0,0.5],[1,0.5]];portConstraint=eastwest;fontStyle=0;connectable=0;" vertex="1" parent="FUVvW8D2CZjYxVvYTpuD-112">
          <mxGeometry y="52" width="140" height="26" as="geometry" />
        </mxCell>
        <mxCell id="TCDaWI29hVGHiBamOFBC-38" value="Debits" style="text;strokeColor=none;fillColor=none;align=left;verticalAlign=top;spacingLeft=4;spacingRight=4;overflow=hidden;rotatable=0;points=[[0,0.5],[1,0.5]];portConstraint=eastwest;fontStyle=0;connectable=0;" vertex="1" parent="FUVvW8D2CZjYxVvYTpuD-112">
          <mxGeometry y="78" width="140" height="26" as="geometry" />
        </mxCell>
        <mxCell id="FUVvW8D2CZjYxVvYTpuD-114" value="Consumption" style="swimlane;fontStyle=0;childLayout=stackLayout;horizontal=1;startSize=26;fillColor=none;horizontalStack=0;resizeParent=1;resizeParentMax=0;resizeLast=0;collapsible=1;marginBottom=0;" vertex="1" parent="1">
          <mxGeometry x="880.0000000000001" y="158" width="140" height="78" as="geometry">
            <mxRectangle x="480" y="20" width="80" height="60" as="alternateBounds" />
          </mxGeometry>
        </mxCell>
        <mxCell id="SJCmVbKFH3M2zekq8A61-13" value="Id" style="text;strokeColor=none;fillColor=none;align=left;verticalAlign=top;spacingLeft=4;spacingRight=4;overflow=hidden;rotatable=0;points=[[0,0.5],[1,0.5]];portConstraint=eastwest;fontStyle=4;connectable=0;" vertex="1" parent="FUVvW8D2CZjYxVvYTpuD-114">
          <mxGeometry y="26" width="140" height="26" as="geometry" />
        </mxCell>
        <mxCell id="SJCmVbKFH3M2zekq8A61-14" value="Date" style="text;strokeColor=none;fillColor=none;align=left;verticalAlign=top;spacingLeft=4;spacingRight=4;overflow=hidden;rotatable=0;points=[[0,0.5],[1,0.5]];portConstraint=eastwest;fontStyle=0;connectable=0;" vertex="1" parent="FUVvW8D2CZjYxVvYTpuD-114">
          <mxGeometry y="52" width="140" height="26" as="geometry" />
        </mxCell>
        <mxCell id="FUVvW8D2CZjYxVvYTpuD-115" style="edgeStyle=none;shape=connector;rounded=1;html=1;exitX=-0.002;exitY=0.164;exitDx=0;exitDy=0;entryX=1;entryY=0.25;entryDx=0;entryDy=0;labelBackgroundColor=default;strokeColor=default;strokeWidth=1;fontFamily=Helvetica;fontSize=12;fontColor=default;endArrow=none;endFill=0;startSize=6;endSize=6;exitPerimeter=0;" edge="1" parent="1" source="FUVvW8D2CZjYxVvYTpuD-123" target="FUVvW8D2CZjYxVvYTpuD-112">
          <mxGeometry relative="1" as="geometry">
            <mxPoint x="1170.7600000000002" y="56" as="sourcePoint" />
          </mxGeometry>
        </mxCell>
        <mxCell id="FUVvW8D2CZjYxVvYTpuD-116" value="&lt;span style=&quot;&quot;&gt;◄&amp;nbsp;&lt;/span&gt;Is relative to" style="edgeLabel;html=1;align=center;verticalAlign=middle;resizable=0;points=[];fontSize=12;fontFamily=Helvetica;fontColor=default;labelBackgroundColor=default;" connectable="0" vertex="1" parent="FUVvW8D2CZjYxVvYTpuD-115">
          <mxGeometry x="-0.1714" y="-1" relative="1" as="geometry">
            <mxPoint x="-18" y="1" as="offset" />
          </mxGeometry>
        </mxCell>
        <mxCell id="FUVvW8D2CZjYxVvYTpuD-117" value="1" style="edgeLabel;html=1;align=center;verticalAlign=middle;resizable=0;points=[];fontSize=12;fontFamily=Helvetica;fontColor=default;" connectable="0" vertex="1" parent="FUVvW8D2CZjYxVvYTpuD-115">
          <mxGeometry x="0.9217" y="-1" relative="1" as="geometry">
            <mxPoint as="offset" />
          </mxGeometry>
        </mxCell>
        <mxCell id="FUVvW8D2CZjYxVvYTpuD-118" value="1..*" style="edgeLabel;html=1;align=center;verticalAlign=middle;resizable=0;points=[];fontSize=12;fontFamily=Helvetica;fontColor=default;" connectable="0" vertex="1" parent="FUVvW8D2CZjYxVvYTpuD-115">
          <mxGeometry x="-0.8282" y="1" relative="1" as="geometry">
            <mxPoint as="offset" />
          </mxGeometry>
        </mxCell>
        <mxCell id="FUVvW8D2CZjYxVvYTpuD-123" value="Paiement" style="swimlane;fontStyle=0;childLayout=stackLayout;horizontal=1;startSize=26;fillColor=none;horizontalStack=0;resizeParent=1;resizeParentMax=0;resizeLast=0;collapsible=1;marginBottom=0;" vertex="1" parent="1">
          <mxGeometry x="1300" y="1.83" width="140" height="104" as="geometry">
            <mxRectangle x="480" y="20" width="80" height="60" as="alternateBounds" />
          </mxGeometry>
        </mxCell>
        <mxCell id="llPPeMHtx-DtPn5ioxyx-6" value="Id" style="text;strokeColor=none;fillColor=none;align=left;verticalAlign=top;spacingLeft=4;spacingRight=4;overflow=hidden;rotatable=0;points=[[0,0.5],[1,0.5]];portConstraint=eastwest;connectable=0;fontStyle=4" vertex="1" parent="FUVvW8D2CZjYxVvYTpuD-123">
          <mxGeometry y="26" width="140" height="26" as="geometry" />
        </mxCell>
        <mxCell id="FUVvW8D2CZjYxVvYTpuD-124" value="Amount" style="text;strokeColor=none;fillColor=none;align=left;verticalAlign=top;spacingLeft=4;spacingRight=4;overflow=hidden;rotatable=0;points=[[0,0.5],[1,0.5]];portConstraint=eastwest;connectable=0;fontStyle=0" vertex="1" parent="FUVvW8D2CZjYxVvYTpuD-123">
          <mxGeometry y="52" width="140" height="26" as="geometry" />
        </mxCell>
        <mxCell id="llPPeMHtx-DtPn5ioxyx-7" value="Date" style="text;strokeColor=none;fillColor=none;align=left;verticalAlign=top;spacingLeft=4;spacingRight=4;overflow=hidden;rotatable=0;points=[[0,0.5],[1,0.5]];portConstraint=eastwest;connectable=0;fontStyle=0" vertex="1" parent="FUVvW8D2CZjYxVvYTpuD-123">
          <mxGeometry y="78" width="140" height="26" as="geometry" />
        </mxCell>
        <mxCell id="FUVvW8D2CZjYxVvYTpuD-125" value="Cashier" style="swimlane;fontStyle=0;childLayout=stackLayout;horizontal=1;startSize=26;fillColor=none;horizontalStack=0;resizeParent=1;resizeParentMax=0;resizeLast=0;collapsible=1;marginBottom=0;" vertex="1" parent="1">
          <mxGeometry x="1220" y="224.83" width="140" height="52" as="geometry">
            <mxRectangle x="480" y="20" width="80" height="60" as="alternateBounds" />
          </mxGeometry>
        </mxCell>
        <mxCell id="FUVvW8D2CZjYxVvYTpuD-126" value="Bill" style="swimlane;fontStyle=0;childLayout=stackLayout;horizontal=1;startSize=26;fillColor=none;horizontalStack=0;resizeParent=1;resizeParentMax=0;resizeLast=0;collapsible=1;marginBottom=0;" vertex="1" parent="1">
          <mxGeometry x="1400" y="224.83" width="140" height="52" as="geometry">
            <mxRectangle x="480" y="20" width="80" height="60" as="alternateBounds" />
          </mxGeometry>
        </mxCell>
        <mxCell id="TCDaWI29hVGHiBamOFBC-76" value="IssueDate" style="text;strokeColor=none;fillColor=none;align=left;verticalAlign=top;spacingLeft=4;spacingRight=4;overflow=hidden;rotatable=0;points=[[0,0.5],[1,0.5]];portConstraint=eastwest;connectable=0;fontStyle=0" vertex="1" parent="FUVvW8D2CZjYxVvYTpuD-126">
          <mxGeometry y="26" width="140" height="26" as="geometry" />
        </mxCell>
        <mxCell id="FUVvW8D2CZjYxVvYTpuD-127" value="" style="endArrow=blockThin;html=1;endFill=0;strokeWidth=1;startSize=6;arcSize=20;endSize=15;sourcePortConstraint=north;orthogonal=1;fixDash=0;backgroundOutline=0;noJump=0;flowAnimation=0;ignoreEdge=0;orthogonalLoop=0;enumerate=0;comic=0;bendable=1;metaEdit=0;snapToPoint=1;anchorPointDirection=1;startFill=1;targetPortConstraint=south;rounded=1;labelBackgroundColor=default;strokeColor=default;fontFamily=Helvetica;fontSize=12;fontColor=default;shape=connector;entryX=0.5;entryY=1;entryDx=0;entryDy=0;exitX=0.5;exitY=0;exitDx=0;exitDy=0;" edge="1" parent="1" source="FUVvW8D2CZjYxVvYTpuD-125" target="FUVvW8D2CZjYxVvYTpuD-123">
          <mxGeometry width="50" height="50" relative="1" as="geometry">
            <mxPoint x="1380.47" y="203.8299999999999" as="sourcePoint" />
            <mxPoint x="1360" y="105.83" as="targetPoint" />
            <Array as="points">
              <mxPoint x="1290" y="175.83" />
              <mxPoint x="1370" y="175.83" />
            </Array>
          </mxGeometry>
        </mxCell>
        <mxCell id="FUVvW8D2CZjYxVvYTpuD-128" value="" style="endArrow=blockThin;html=1;endFill=0;strokeWidth=1;startSize=6;arcSize=20;endSize=15;sourcePortConstraint=north;orthogonal=1;fixDash=0;backgroundOutline=0;noJump=0;flowAnimation=0;ignoreEdge=0;orthogonalLoop=0;enumerate=0;comic=0;bendable=1;metaEdit=0;snapToPoint=1;anchorPointDirection=1;startFill=1;targetPortConstraint=south;rounded=1;labelBackgroundColor=default;strokeColor=default;fontFamily=Helvetica;fontSize=12;fontColor=default;shape=connector;exitX=0.5;exitY=0;exitDx=0;exitDy=0;entryX=0.5;entryY=1;entryDx=0;entryDy=0;" edge="1" parent="1" source="FUVvW8D2CZjYxVvYTpuD-126" target="FUVvW8D2CZjYxVvYTpuD-123">
          <mxGeometry width="50" height="50" relative="1" as="geometry">
            <mxPoint x="1280.7600000000002" y="165.83" as="sourcePoint" />
            <mxPoint x="1380" y="175.83" as="targetPoint" />
            <Array as="points">
              <mxPoint x="1470" y="175.83" />
              <mxPoint x="1370" y="175.83" />
            </Array>
          </mxGeometry>
        </mxCell>
        <mxCell id="FUVvW8D2CZjYxVvYTpuD-129" value="" style="endArrow=blockThin;html=1;endFill=0;strokeWidth=1;startSize=6;arcSize=20;endSize=15;sourcePortConstraint=north;orthogonal=1;fixDash=0;backgroundOutline=0;noJump=0;flowAnimation=0;ignoreEdge=0;orthogonalLoop=0;enumerate=0;comic=0;bendable=1;metaEdit=0;snapToPoint=1;anchorPointDirection=1;startFill=1;targetPortConstraint=south;exitX=0.5;exitY=0;exitDx=0;exitDy=0;entryX=0.5;entryY=1;entryDx=0;entryDy=0;" edge="1" parent="1" source="FUVvW8D2CZjYxVvYTpuD-130" target="FUVvW8D2CZjYxVvYTpuD-89">
          <mxGeometry width="50" height="50" relative="1" as="geometry">
            <mxPoint x="860" y="666" as="sourcePoint" />
            <mxPoint x="995.7599999999998" y="580" as="targetPoint" />
            <Array as="points">
              <mxPoint x="780" y="670" />
              <mxPoint x="950" y="670" />
            </Array>
          </mxGeometry>
        </mxCell>
        <mxCell id="FUVvW8D2CZjYxVvYTpuD-130" value="UniqueEntry" style="swimlane;fontStyle=0;childLayout=stackLayout;horizontal=1;startSize=26;fillColor=none;horizontalStack=0;resizeParent=1;resizeParentMax=0;resizeLast=0;collapsible=1;marginBottom=0;fixDash=0;portConstraintRotation=0;connectable=1;allowArrows=1;" vertex="1" parent="1">
          <mxGeometry x="709.62" y="718" width="140" height="52" as="geometry">
            <mxRectangle x="480" y="320" width="90" height="30" as="alternateBounds" />
          </mxGeometry>
        </mxCell>
        <mxCell id="FUVvW8D2CZjYxVvYTpuD-131" value="Subscription" style="swimlane;fontStyle=0;childLayout=stackLayout;horizontal=1;startSize=26;fillColor=none;horizontalStack=0;resizeParent=1;resizeParentMax=0;resizeLast=0;collapsible=1;marginBottom=0;fixDash=0;portConstraintRotation=0;connectable=1;allowArrows=1;" vertex="1" parent="1">
          <mxGeometry x="1050.3799999999999" y="718" width="140" height="52" as="geometry">
            <mxRectangle x="480" y="320" width="90" height="30" as="alternateBounds" />
          </mxGeometry>
        </mxCell>
        <mxCell id="FUVvW8D2CZjYxVvYTpuD-132" value="Duration (month)" style="text;strokeColor=none;fillColor=none;align=left;verticalAlign=top;spacingLeft=4;spacingRight=4;overflow=hidden;rotatable=0;points=[[0,0.5],[1,0.5]];portConstraint=eastwest;connectable=0;fontStyle=0" vertex="1" parent="FUVvW8D2CZjYxVvYTpuD-131">
          <mxGeometry y="26" width="140" height="26" as="geometry" />
        </mxCell>
        <mxCell id="FUVvW8D2CZjYxVvYTpuD-133" value="MultipleEntry" style="swimlane;fontStyle=0;childLayout=stackLayout;horizontal=1;startSize=26;fillColor=none;horizontalStack=0;resizeParent=1;resizeParentMax=0;resizeLast=0;collapsible=1;marginBottom=0;fixDash=0;portConstraintRotation=0;connectable=1;allowArrows=1;" vertex="1" parent="1">
          <mxGeometry x="879.62" y="718" width="140" height="78" as="geometry">
            <mxRectangle x="480" y="320" width="90" height="30" as="alternateBounds" />
          </mxGeometry>
        </mxCell>
        <mxCell id="FUVvW8D2CZjYxVvYTpuD-134" value="NumberOfEntry" style="text;strokeColor=none;fillColor=none;align=left;verticalAlign=top;spacingLeft=4;spacingRight=4;overflow=hidden;rotatable=0;points=[[0,0.5],[1,0.5]];portConstraint=eastwest;connectable=0;fontStyle=0" vertex="1" parent="FUVvW8D2CZjYxVvYTpuD-133">
          <mxGeometry y="26" width="140" height="26" as="geometry" />
        </mxCell>
        <mxCell id="TCDaWI29hVGHiBamOFBC-3" value="Validity" style="text;strokeColor=none;fillColor=none;align=left;verticalAlign=top;spacingLeft=4;spacingRight=4;overflow=hidden;rotatable=0;points=[[0,0.5],[1,0.5]];portConstraint=eastwest;connectable=0;fontStyle=0" vertex="1" parent="FUVvW8D2CZjYxVvYTpuD-133">
          <mxGeometry y="52" width="140" height="26" as="geometry" />
        </mxCell>
        <mxCell id="FUVvW8D2CZjYxVvYTpuD-135" value="" style="endArrow=blockThin;html=1;endFill=0;strokeWidth=1;startSize=6;arcSize=20;endSize=15;sourcePortConstraint=north;orthogonal=1;fixDash=0;backgroundOutline=0;noJump=0;flowAnimation=0;ignoreEdge=0;orthogonalLoop=0;enumerate=0;comic=0;bendable=1;metaEdit=0;snapToPoint=1;anchorPointDirection=1;startFill=1;targetPortConstraint=south;rounded=1;labelBackgroundColor=default;strokeColor=default;fontFamily=Helvetica;fontSize=12;fontColor=default;shape=connector;exitX=0.5;exitY=0;exitDx=0;exitDy=0;entryX=0.5;entryY=1;entryDx=0;entryDy=0;" edge="1" parent="1" source="FUVvW8D2CZjYxVvYTpuD-133" target="FUVvW8D2CZjYxVvYTpuD-89">
          <mxGeometry width="50" height="50" relative="1" as="geometry">
            <mxPoint x="950" y="660" as="sourcePoint" />
            <mxPoint x="970" y="590" as="targetPoint" />
          </mxGeometry>
        </mxCell>
        <mxCell id="FUVvW8D2CZjYxVvYTpuD-136" value="" style="endArrow=blockThin;html=1;endFill=0;strokeWidth=1;startSize=6;arcSize=20;endSize=15;sourcePortConstraint=north;orthogonal=1;fixDash=0;backgroundOutline=0;noJump=0;flowAnimation=0;ignoreEdge=0;orthogonalLoop=0;enumerate=0;comic=0;bendable=1;metaEdit=0;snapToPoint=1;anchorPointDirection=1;startFill=1;targetPortConstraint=south;exitX=0.5;exitY=0;exitDx=0;exitDy=0;entryX=0.5;entryY=1;entryDx=0;entryDy=0;" edge="1" parent="1" source="FUVvW8D2CZjYxVvYTpuD-131" target="FUVvW8D2CZjYxVvYTpuD-89">
          <mxGeometry width="50" height="50" relative="1" as="geometry">
            <mxPoint x="980" y="640" as="sourcePoint" />
            <mxPoint x="1150" y="562" as="targetPoint" />
            <Array as="points">
              <mxPoint x="1120" y="670" />
              <mxPoint x="950" y="670" />
            </Array>
          </mxGeometry>
        </mxCell>
        <mxCell id="FUVvW8D2CZjYxVvYTpuD-138" value="disjointed / total" style="text;strokeColor=none;fillColor=none;align=center;verticalAlign=middle;whiteSpace=wrap;rounded=0;fontFamily=Helvetica;fontSize=12;fontColor=default;labelBackgroundColor=default;" vertex="1" parent="1">
          <mxGeometry x="899.62" y="620" width="100" height="30" as="geometry" />
        </mxCell>
        <mxCell id="FUVvW8D2CZjYxVvYTpuD-139" value="disjointed / total" style="text;strokeColor=none;fillColor=none;align=center;verticalAlign=middle;whiteSpace=wrap;rounded=0;fontFamily=Helvetica;fontSize=12;fontColor=default;" vertex="1" parent="1">
          <mxGeometry x="1070.38" y="460" width="100" height="30" as="geometry" />
        </mxCell>
        <mxCell id="FUVvW8D2CZjYxVvYTpuD-140" value="partial" style="text;strokeColor=none;fillColor=none;align=center;verticalAlign=middle;whiteSpace=wrap;rounded=0;fontFamily=Helvetica;fontSize=12;fontColor=default;" vertex="1" parent="1">
          <mxGeometry x="570" y="400" width="100" height="30" as="geometry" />
        </mxCell>
        <mxCell id="FUVvW8D2CZjYxVvYTpuD-143" style="edgeStyle=none;shape=connector;rounded=1;html=1;exitX=0.5;exitY=0;exitDx=0;exitDy=0;entryX=0;entryY=0.5;entryDx=0;entryDy=0;labelBackgroundColor=default;strokeColor=default;strokeWidth=1;fontFamily=Helvetica;fontSize=12;fontColor=default;endArrow=none;endFill=0;startSize=6;endSize=6;" edge="1" parent="1" source="FUVvW8D2CZjYxVvYTpuD-147" target="FUVvW8D2CZjYxVvYTpuD-57">
          <mxGeometry relative="1" as="geometry">
            <Array as="points">
              <mxPoint x="-435" y="549" />
            </Array>
            <mxPoint x="175" y="922" as="targetPoint" />
          </mxGeometry>
        </mxCell>
        <mxCell id="FUVvW8D2CZjYxVvYTpuD-144" value="&lt;span style=&quot;&quot;&gt;◄&amp;nbsp;&lt;/span&gt;Has&amp;nbsp;" style="edgeLabel;html=1;align=center;verticalAlign=middle;resizable=0;points=[];fontSize=12;fontFamily=Helvetica;fontColor=default;" connectable="0" vertex="1" parent="FUVvW8D2CZjYxVvYTpuD-143">
          <mxGeometry x="-0.2038" y="3" relative="1" as="geometry">
            <mxPoint x="365" as="offset" />
          </mxGeometry>
        </mxCell>
        <mxCell id="FUVvW8D2CZjYxVvYTpuD-145" value="0..*" style="edgeLabel;html=1;align=center;verticalAlign=middle;resizable=0;points=[];fontSize=12;fontFamily=Helvetica;fontColor=default;" connectable="0" vertex="1" parent="FUVvW8D2CZjYxVvYTpuD-143">
          <mxGeometry x="-0.9399" y="1" relative="1" as="geometry">
            <mxPoint as="offset" />
          </mxGeometry>
        </mxCell>
        <mxCell id="FUVvW8D2CZjYxVvYTpuD-146" value="1" style="edgeLabel;html=1;align=center;verticalAlign=middle;resizable=0;points=[];fontSize=12;fontFamily=Helvetica;fontColor=default;" connectable="0" vertex="1" parent="FUVvW8D2CZjYxVvYTpuD-143">
          <mxGeometry x="0.9483" y="2" relative="1" as="geometry">
            <mxPoint as="offset" />
          </mxGeometry>
        </mxCell>
        <mxCell id="FUVvW8D2CZjYxVvYTpuD-148" value="Purchase" style="swimlane;fontStyle=0;childLayout=stackLayout;horizontal=1;startSize=26;fillColor=#f8cecc;horizontalStack=0;resizeParent=1;resizeParentMax=0;resizeLast=0;collapsible=1;marginBottom=0;fixDash=0;portConstraintRotation=0;connectable=1;allowArrows=1;strokeColor=#b85450;" vertex="1" parent="1">
          <mxGeometry x="-765" y="873.15" width="140" height="52" as="geometry">
            <mxRectangle x="480" y="320" width="90" height="30" as="alternateBounds" />
          </mxGeometry>
        </mxCell>
        <mxCell id="FUVvW8D2CZjYxVvYTpuD-149" value="Staff" style="swimlane;fontStyle=0;childLayout=stackLayout;horizontal=1;startSize=26;fillColor=#f8cecc;horizontalStack=0;resizeParent=1;resizeParentMax=0;resizeLast=0;collapsible=1;marginBottom=0;fixDash=0;portConstraintRotation=0;connectable=1;allowArrows=1;strokeColor=#b85450;" vertex="1" parent="1">
          <mxGeometry x="-585" y="873.15" width="140" height="52" as="geometry">
            <mxRectangle x="480" y="320" width="90" height="30" as="alternateBounds" />
          </mxGeometry>
        </mxCell>
        <mxCell id="FUVvW8D2CZjYxVvYTpuD-150" value="External service" style="swimlane;fontStyle=0;childLayout=stackLayout;horizontal=1;startSize=26;fillColor=#f8cecc;horizontalStack=0;resizeParent=1;resizeParentMax=0;resizeLast=0;collapsible=1;marginBottom=0;fixDash=0;portConstraintRotation=0;connectable=1;allowArrows=1;strokeColor=#b85450;" vertex="1" parent="1">
          <mxGeometry x="-405" y="873.15" width="140" height="52" as="geometry">
            <mxRectangle x="480" y="320" width="90" height="30" as="alternateBounds" />
          </mxGeometry>
        </mxCell>
        <mxCell id="FUVvW8D2CZjYxVvYTpuD-151" value="Fixed" style="swimlane;fontStyle=0;childLayout=stackLayout;horizontal=1;startSize=26;fillColor=#f8cecc;horizontalStack=0;resizeParent=1;resizeParentMax=0;resizeLast=0;collapsible=1;marginBottom=0;fixDash=0;portConstraintRotation=0;connectable=1;allowArrows=1;strokeColor=#b85450;" vertex="1" parent="1">
          <mxGeometry x="-225" y="873.15" width="140" height="52" as="geometry">
            <mxRectangle x="480" y="320" width="90" height="30" as="alternateBounds" />
          </mxGeometry>
        </mxCell>
        <mxCell id="FUVvW8D2CZjYxVvYTpuD-152" value="" style="endArrow=blockThin;html=1;endFill=0;strokeWidth=1;startSize=6;arcSize=20;endSize=15;sourcePortConstraint=north;orthogonal=1;fixDash=0;backgroundOutline=0;noJump=0;flowAnimation=0;ignoreEdge=0;orthogonalLoop=0;enumerate=0;comic=0;bendable=1;metaEdit=0;snapToPoint=1;anchorPointDirection=1;startFill=1;targetPortConstraint=south;rounded=1;labelBackgroundColor=default;strokeColor=default;fontFamily=Helvetica;fontSize=12;fontColor=default;shape=connector;exitX=0.5;exitY=0;exitDx=0;exitDy=0;entryX=0.5;entryY=1;entryDx=0;entryDy=0;" edge="1" parent="1" source="FUVvW8D2CZjYxVvYTpuD-149" target="FUVvW8D2CZjYxVvYTpuD-147">
          <mxGeometry width="50" height="50" relative="1" as="geometry">
            <mxPoint x="-545" y="823.15" as="sourcePoint" />
            <mxPoint x="-544.6666666666665" y="713.15" as="targetPoint" />
            <Array as="points">
              <mxPoint x="-515" y="813.15" />
              <mxPoint x="-435" y="813.15" />
            </Array>
          </mxGeometry>
        </mxCell>
        <mxCell id="FUVvW8D2CZjYxVvYTpuD-153" value="" style="endArrow=blockThin;html=1;endFill=0;strokeWidth=1;startSize=6;arcSize=20;endSize=15;sourcePortConstraint=north;orthogonal=1;fixDash=0;backgroundOutline=0;noJump=0;flowAnimation=0;ignoreEdge=0;orthogonalLoop=0;enumerate=0;comic=0;bendable=1;metaEdit=0;snapToPoint=1;anchorPointDirection=1;startFill=1;targetPortConstraint=south;rounded=1;labelBackgroundColor=default;strokeColor=default;fontFamily=Helvetica;fontSize=12;fontColor=default;shape=connector;exitX=0.5;exitY=0;exitDx=0;exitDy=0;entryX=0.5;entryY=1;entryDx=0;entryDy=0;" edge="1" parent="1" source="FUVvW8D2CZjYxVvYTpuD-150" target="FUVvW8D2CZjYxVvYTpuD-147">
          <mxGeometry width="50" height="50" relative="1" as="geometry">
            <mxPoint x="-355" y="812.15" as="sourcePoint" />
            <mxPoint x="-265" y="743.15" as="targetPoint" />
            <Array as="points">
              <mxPoint x="-335" y="813.15" />
              <mxPoint x="-435" y="813.15" />
            </Array>
          </mxGeometry>
        </mxCell>
        <mxCell id="FUVvW8D2CZjYxVvYTpuD-154" value="" style="endArrow=blockThin;html=1;endFill=0;strokeWidth=1;startSize=6;arcSize=20;endSize=15;sourcePortConstraint=north;orthogonal=1;fixDash=0;backgroundOutline=0;noJump=0;flowAnimation=0;ignoreEdge=0;orthogonalLoop=0;enumerate=0;comic=0;bendable=1;metaEdit=0;snapToPoint=1;anchorPointDirection=1;startFill=1;targetPortConstraint=south;rounded=1;labelBackgroundColor=default;strokeColor=default;fontFamily=Helvetica;fontSize=12;fontColor=default;shape=connector;exitX=0.5;exitY=0;exitDx=0;exitDy=0;entryX=0.5;entryY=1;entryDx=0;entryDy=0;" edge="1" parent="1" source="FUVvW8D2CZjYxVvYTpuD-151" target="FUVvW8D2CZjYxVvYTpuD-147">
          <mxGeometry width="50" height="50" relative="1" as="geometry">
            <mxPoint x="-332" y="822.15" as="sourcePoint" />
            <mxPoint x="-242" y="753.15" as="targetPoint" />
            <Array as="points">
              <mxPoint x="-155" y="813.15" />
              <mxPoint x="-435" y="813.15" />
            </Array>
          </mxGeometry>
        </mxCell>
        <mxCell id="FUVvW8D2CZjYxVvYTpuD-155" value="" style="endArrow=blockThin;html=1;endFill=0;strokeWidth=1;startSize=6;arcSize=20;endSize=15;sourcePortConstraint=north;orthogonal=1;fixDash=0;backgroundOutline=0;noJump=0;flowAnimation=0;ignoreEdge=0;orthogonalLoop=0;enumerate=0;comic=0;bendable=1;metaEdit=0;snapToPoint=1;anchorPointDirection=1;startFill=1;targetPortConstraint=south;rounded=1;labelBackgroundColor=default;strokeColor=default;fontFamily=Helvetica;fontSize=12;fontColor=default;shape=connector;exitX=0.5;exitY=0;exitDx=0;exitDy=0;entryX=0.5;entryY=1;entryDx=0;entryDy=0;" edge="1" parent="1" source="FUVvW8D2CZjYxVvYTpuD-148" target="FUVvW8D2CZjYxVvYTpuD-147">
          <mxGeometry width="50" height="50" relative="1" as="geometry">
            <mxPoint x="-685" y="802.15" as="sourcePoint" />
            <mxPoint x="-595" y="733.15" as="targetPoint" />
            <Array as="points">
              <mxPoint x="-695" y="813.15" />
              <mxPoint x="-435" y="813.15" />
            </Array>
          </mxGeometry>
        </mxCell>
        <mxCell id="FUVvW8D2CZjYxVvYTpuD-156" value="disjointed / total" style="text;strokeColor=none;fillColor=none;align=center;verticalAlign=middle;whiteSpace=wrap;rounded=0;fontFamily=Helvetica;fontSize=12;fontColor=default;labelBackgroundColor=default;" vertex="1" parent="1">
          <mxGeometry x="-485" y="783.15" width="100" height="30" as="geometry" />
        </mxCell>
        <mxCell id="TCDaWI29hVGHiBamOFBC-47" style="edgeStyle=none;shape=connector;rounded=1;orthogonalLoop=1;jettySize=auto;html=1;exitX=0.75;exitY=0;exitDx=0;exitDy=0;entryX=0;entryY=0.5;entryDx=0;entryDy=0;labelBackgroundColor=default;strokeColor=default;strokeWidth=1;align=center;verticalAlign=middle;fontFamily=Helvetica;fontSize=12;fontColor=default;endArrow=none;endFill=0;startSize=6;endSize=6;" edge="1" parent="1" source="FUVvW8D2CZjYxVvYTpuD-159" target="FUVvW8D2CZjYxVvYTpuD-8">
          <mxGeometry relative="1" as="geometry">
            <Array as="points">
              <mxPoint x="418" y="124" />
            </Array>
          </mxGeometry>
        </mxCell>
        <mxCell id="TCDaWI29hVGHiBamOFBC-58" value="1" style="edgeLabel;html=1;align=center;verticalAlign=middle;resizable=0;points=[];fontSize=12;fontFamily=Helvetica;fontColor=default;" vertex="1" connectable="0" parent="TCDaWI29hVGHiBamOFBC-47">
          <mxGeometry x="0.8012" y="5" relative="1" as="geometry">
            <mxPoint as="offset" />
          </mxGeometry>
        </mxCell>
        <mxCell id="TCDaWI29hVGHiBamOFBC-59" value="0..*" style="edgeLabel;html=1;align=center;verticalAlign=middle;resizable=0;points=[];fontSize=12;fontFamily=Helvetica;fontColor=default;" vertex="1" connectable="0" parent="TCDaWI29hVGHiBamOFBC-47">
          <mxGeometry x="-0.8446" relative="1" as="geometry">
            <mxPoint as="offset" />
          </mxGeometry>
        </mxCell>
        <mxCell id="llPPeMHtx-DtPn5ioxyx-29" value="is relative to&amp;nbsp;▲" style="edgeLabel;html=1;align=center;verticalAlign=middle;resizable=0;points=[];" connectable="0" vertex="1" parent="TCDaWI29hVGHiBamOFBC-47">
          <mxGeometry x="-0.047" y="2" relative="1" as="geometry">
            <mxPoint y="1" as="offset" />
          </mxGeometry>
        </mxCell>
        <mxCell id="FUVvW8D2CZjYxVvYTpuD-157" value="Documents" style="swimlane;fontStyle=0;childLayout=stackLayout;horizontal=1;startSize=26;fillColor=none;horizontalStack=0;resizeParent=1;resizeParentMax=0;resizeLast=0;collapsible=1;marginBottom=0;fixDash=0;portConstraintRotation=0;connectable=1;allowArrows=1;" vertex="1" parent="1">
          <mxGeometry x="180" y="98" width="150" height="78" as="geometry">
            <mxRectangle x="480" y="320" width="90" height="30" as="alternateBounds" />
          </mxGeometry>
        </mxCell>
        <mxCell id="TCDaWI29hVGHiBamOFBC-123" value="Id" style="text;strokeColor=none;fillColor=none;align=left;verticalAlign=top;spacingLeft=4;spacingRight=4;overflow=hidden;rotatable=0;points=[[0,0.5],[1,0.5]];portConstraint=eastwest;connectable=0;fontStyle=4" vertex="1" parent="FUVvW8D2CZjYxVvYTpuD-157">
          <mxGeometry y="26" width="150" height="26" as="geometry" />
        </mxCell>
        <mxCell id="TCDaWI29hVGHiBamOFBC-122" value="Content" style="text;strokeColor=none;fillColor=none;align=left;verticalAlign=top;spacingLeft=4;spacingRight=4;overflow=hidden;rotatable=0;points=[[0,0.5],[1,0.5]];portConstraint=eastwest;connectable=0;" vertex="1" parent="FUVvW8D2CZjYxVvYTpuD-157">
          <mxGeometry y="52" width="150" height="26" as="geometry" />
        </mxCell>
        <mxCell id="FUVvW8D2CZjYxVvYTpuD-158" value="Templates" style="swimlane;fontStyle=0;childLayout=stackLayout;horizontal=1;startSize=26;fillColor=none;horizontalStack=0;resizeParent=1;resizeParentMax=0;resizeLast=0;collapsible=1;marginBottom=0;fixDash=0;portConstraintRotation=0;connectable=1;allowArrows=1;" vertex="1" parent="1">
          <mxGeometry x="60" y="262" width="150" height="52" as="geometry">
            <mxRectangle x="480" y="320" width="90" height="30" as="alternateBounds" />
          </mxGeometry>
        </mxCell>
        <mxCell id="FUVvW8D2CZjYxVvYTpuD-159" value="ComputedDocument" style="swimlane;fontStyle=0;childLayout=stackLayout;horizontal=1;startSize=26;fillColor=none;horizontalStack=0;resizeParent=1;resizeParentMax=0;resizeLast=0;collapsible=1;marginBottom=0;fixDash=0;portConstraintRotation=0;connectable=1;allowArrows=1;" vertex="1" parent="1">
          <mxGeometry x="305" y="262" width="150" height="52" as="geometry">
            <mxRectangle x="480" y="320" width="90" height="30" as="alternateBounds" />
          </mxGeometry>
        </mxCell>
        <mxCell id="FUVvW8D2CZjYxVvYTpuD-160" value="" style="endArrow=blockThin;html=1;endFill=0;strokeWidth=1;startSize=6;arcSize=20;endSize=15;sourcePortConstraint=north;orthogonal=1;fixDash=0;backgroundOutline=0;noJump=0;flowAnimation=0;ignoreEdge=0;orthogonalLoop=0;enumerate=0;comic=0;bendable=1;metaEdit=0;snapToPoint=1;anchorPointDirection=1;startFill=1;targetPortConstraint=south;exitX=0.5;exitY=0;exitDx=0;exitDy=0;entryX=0.5;entryY=1;entryDx=0;entryDy=0;" edge="1" parent="1" source="FUVvW8D2CZjYxVvYTpuD-158" target="FUVvW8D2CZjYxVvYTpuD-157">
          <mxGeometry width="50" height="50" relative="1" as="geometry">
            <mxPoint x="119.61999999999989" y="280" as="sourcePoint" />
            <mxPoint x="290" y="150" as="targetPoint" />
            <Array as="points">
              <mxPoint x="135" y="240" />
              <mxPoint x="255" y="240" />
            </Array>
          </mxGeometry>
        </mxCell>
        <mxCell id="FUVvW8D2CZjYxVvYTpuD-161" value="" style="endArrow=blockThin;html=1;endFill=0;strokeWidth=1;startSize=6;arcSize=20;endSize=15;sourcePortConstraint=north;orthogonal=1;fixDash=0;backgroundOutline=0;noJump=0;flowAnimation=0;ignoreEdge=0;orthogonalLoop=0;enumerate=0;comic=0;bendable=1;metaEdit=0;snapToPoint=1;anchorPointDirection=1;startFill=1;targetPortConstraint=south;exitX=0.5;exitY=0;exitDx=0;exitDy=0;entryX=0.5;entryY=1;entryDx=0;entryDy=0;" edge="1" parent="1" source="FUVvW8D2CZjYxVvYTpuD-159" target="FUVvW8D2CZjYxVvYTpuD-157">
          <mxGeometry width="50" height="50" relative="1" as="geometry">
            <mxPoint x="390" y="268" as="sourcePoint" />
            <mxPoint x="530" y="160" as="targetPoint" />
            <Array as="points">
              <mxPoint x="380" y="240" />
              <mxPoint x="255" y="240" />
            </Array>
          </mxGeometry>
        </mxCell>
        <mxCell id="FUVvW8D2CZjYxVvYTpuD-162" style="edgeStyle=none;shape=connector;rounded=1;html=1;exitX=0.5;exitY=1;exitDx=0;exitDy=0;entryX=0.5;entryY=0;entryDx=0;entryDy=0;labelBackgroundColor=default;strokeColor=default;strokeWidth=1;fontFamily=Helvetica;fontSize=12;fontColor=default;endArrow=none;endFill=0;startSize=6;endSize=6;" edge="1" parent="1" source="FUVvW8D2CZjYxVvYTpuD-165" target="FUVvW8D2CZjYxVvYTpuD-168">
          <mxGeometry relative="1" as="geometry" />
        </mxCell>
        <mxCell id="FUVvW8D2CZjYxVvYTpuD-163" value="1" style="edgeLabel;html=1;align=center;verticalAlign=middle;resizable=0;points=[];fontSize=12;fontFamily=Helvetica;fontColor=default;" connectable="0" vertex="1" parent="FUVvW8D2CZjYxVvYTpuD-162">
          <mxGeometry x="-0.7582" y="3" relative="1" as="geometry">
            <mxPoint x="6" y="25" as="offset" />
          </mxGeometry>
        </mxCell>
        <mxCell id="FUVvW8D2CZjYxVvYTpuD-164" value="0..*" style="edgeLabel;html=1;align=center;verticalAlign=middle;resizable=0;points=[];fontSize=12;fontFamily=Helvetica;fontColor=default;" connectable="0" vertex="1" parent="FUVvW8D2CZjYxVvYTpuD-162">
          <mxGeometry x="0.6815" relative="1" as="geometry">
            <mxPoint as="offset" />
          </mxGeometry>
        </mxCell>
        <mxCell id="llPPeMHtx-DtPn5ioxyx-26" value="concerns&amp;nbsp;&amp;nbsp;▲" style="edgeLabel;html=1;align=center;verticalAlign=middle;resizable=0;points=[];" connectable="0" vertex="1" parent="FUVvW8D2CZjYxVvYTpuD-162">
          <mxGeometry x="-0.2646" y="3" relative="1" as="geometry">
            <mxPoint x="-4" y="18" as="offset" />
          </mxGeometry>
        </mxCell>
        <mxCell id="TCDaWI29hVGHiBamOFBC-121" value="Name" style="edgeLabel;html=1;align=center;verticalAlign=middle;resizable=0;points=[];fontSize=12;fontFamily=Helvetica;fontColor=default;labelBorderColor=default;" vertex="1" connectable="0" parent="FUVvW8D2CZjYxVvYTpuD-162">
          <mxGeometry x="-0.8335" y="-1" relative="1" as="geometry">
            <mxPoint y="-1" as="offset" />
          </mxGeometry>
        </mxCell>
        <mxCell id="FUVvW8D2CZjYxVvYTpuD-165" value="Cours" style="swimlane;fontStyle=0;childLayout=stackLayout;horizontal=1;startSize=26;fillColor=#f8cecc;horizontalStack=0;resizeParent=1;resizeParentMax=0;resizeLast=0;collapsible=1;marginBottom=0;fixDash=0;portConstraintRotation=0;connectable=1;allowArrows=1;strokeColor=#b85450;" vertex="1" parent="1">
          <mxGeometry x="330.76" y="820" width="140" height="52" as="geometry">
            <mxRectangle x="700" y="320" width="90" height="30" as="alternateBounds" />
          </mxGeometry>
        </mxCell>
        <mxCell id="FUVvW8D2CZjYxVvYTpuD-171" value="Name" style="text;strokeColor=none;fillColor=none;align=left;verticalAlign=top;spacingLeft=4;spacingRight=4;overflow=hidden;rotatable=0;points=[[0,0.5],[1,0.5]];portConstraint=eastwest;connectable=0;fontStyle=4" vertex="1" parent="FUVvW8D2CZjYxVvYTpuD-165">
          <mxGeometry y="26" width="140" height="26" as="geometry" />
        </mxCell>
        <mxCell id="FUVvW8D2CZjYxVvYTpuD-166" style="edgeStyle=none;shape=connector;rounded=1;html=1;exitX=1;exitY=0.5;exitDx=0;exitDy=0;entryX=0;entryY=0.5;entryDx=0;entryDy=0;labelBackgroundColor=default;strokeColor=default;strokeWidth=1;fontFamily=Helvetica;fontSize=12;fontColor=default;endArrow=none;endFill=0;startSize=6;endSize=6;" edge="1" parent="1" source="FUVvW8D2CZjYxVvYTpuD-168" target="FUVvW8D2CZjYxVvYTpuD-169">
          <mxGeometry relative="1" as="geometry" />
        </mxCell>
        <mxCell id="FUVvW8D2CZjYxVvYTpuD-167" value="1" style="edgeLabel;html=1;align=center;verticalAlign=middle;resizable=0;points=[];fontSize=12;fontFamily=Helvetica;fontColor=default;" connectable="0" vertex="1" parent="FUVvW8D2CZjYxVvYTpuD-166">
          <mxGeometry x="0.7308" relative="1" as="geometry">
            <mxPoint x="-25" as="offset" />
          </mxGeometry>
        </mxCell>
        <mxCell id="llPPeMHtx-DtPn5ioxyx-25" value="has&amp;nbsp;►" style="edgeLabel;html=1;align=center;verticalAlign=middle;resizable=0;points=[];" connectable="0" vertex="1" parent="FUVvW8D2CZjYxVvYTpuD-166">
          <mxGeometry x="-0.052" y="2" relative="1" as="geometry">
            <mxPoint as="offset" />
          </mxGeometry>
        </mxCell>
        <mxCell id="TCDaWI29hVGHiBamOFBC-119" value="Name" style="edgeLabel;html=1;align=center;verticalAlign=middle;resizable=0;points=[];fontSize=12;fontFamily=Helvetica;fontColor=default;labelBorderColor=default;labelBackgroundColor=default;" vertex="1" connectable="0" parent="FUVvW8D2CZjYxVvYTpuD-166">
          <mxGeometry x="0.8577" y="-1" relative="1" as="geometry">
            <mxPoint x="-8" as="offset" />
          </mxGeometry>
        </mxCell>
        <mxCell id="FUVvW8D2CZjYxVvYTpuD-168" value="Session" style="swimlane;fontStyle=0;childLayout=stackLayout;horizontal=1;startSize=26;fillColor=#f8cecc;horizontalStack=0;resizeParent=1;resizeParentMax=0;resizeLast=0;collapsible=1;marginBottom=0;fixDash=0;portConstraintRotation=0;connectable=0;allowArrows=1;strokeColor=#b85450;" vertex="1" parent="1">
          <mxGeometry x="330.76" y="980" width="140" height="78" as="geometry">
            <mxRectangle x="700" y="320" width="90" height="30" as="alternateBounds" />
          </mxGeometry>
        </mxCell>
        <mxCell id="TCDaWI29hVGHiBamOFBC-116" value="Date" style="text;strokeColor=none;fillColor=none;align=left;verticalAlign=top;spacingLeft=4;spacingRight=4;overflow=hidden;rotatable=0;points=[[0,0.5],[1,0.5]];portConstraint=eastwest;connectable=0;fontStyle=4" vertex="1" parent="FUVvW8D2CZjYxVvYTpuD-168">
          <mxGeometry y="26" width="140" height="26" as="geometry" />
        </mxCell>
        <mxCell id="TCDaWI29hVGHiBamOFBC-117" value="Hours" style="text;strokeColor=none;fillColor=none;align=left;verticalAlign=top;spacingLeft=4;spacingRight=4;overflow=hidden;rotatable=0;points=[[0,0.5],[1,0.5]];portConstraint=eastwest;connectable=0;fontStyle=4" vertex="1" parent="FUVvW8D2CZjYxVvYTpuD-168">
          <mxGeometry y="52" width="140" height="26" as="geometry" />
        </mxCell>
        <mxCell id="FUVvW8D2CZjYxVvYTpuD-169" value="Room" style="swimlane;fontStyle=0;childLayout=stackLayout;horizontal=1;startSize=26;fillColor=#f8cecc;horizontalStack=0;resizeParent=1;resizeParentMax=0;resizeLast=0;collapsible=1;marginBottom=0;fixDash=0;portConstraintRotation=0;connectable=1;allowArrows=1;strokeColor=#b85450;" vertex="1" parent="1">
          <mxGeometry x="640" y="993" width="140" height="52" as="geometry">
            <mxRectangle x="700" y="320" width="90" height="30" as="alternateBounds" />
          </mxGeometry>
        </mxCell>
        <mxCell id="FUVvW8D2CZjYxVvYTpuD-172" value="Name" style="text;strokeColor=none;fillColor=none;align=left;verticalAlign=top;spacingLeft=4;spacingRight=4;overflow=hidden;rotatable=0;points=[[0,0.5],[1,0.5]];portConstraint=eastwest;connectable=0;fontStyle=4" vertex="1" parent="FUVvW8D2CZjYxVvYTpuD-169">
          <mxGeometry y="26" width="140" height="26" as="geometry" />
        </mxCell>
        <mxCell id="FUVvW8D2CZjYxVvYTpuD-170" value="disjointed / total" style="text;strokeColor=none;fillColor=none;align=center;verticalAlign=middle;whiteSpace=wrap;rounded=0;fontFamily=Helvetica;fontSize=12;fontColor=default;labelBackgroundColor=default;" vertex="1" parent="1">
          <mxGeometry x="205.0000000000001" y="200" width="100" height="30" as="geometry" />
        </mxCell>
        <mxCell id="1hrxPjJIMzDO0wl7sMhk-2" value="0..*" style="edgeLabel;html=1;align=center;verticalAlign=middle;resizable=0;points=[];fontSize=12;fontFamily=Helvetica;fontColor=default;" connectable="0" vertex="1" parent="1">
          <mxGeometry x="575.204444444445" y="1016.0000000000005" as="geometry">
            <mxPoint x="-94" y="-8" as="offset" />
          </mxGeometry>
        </mxCell>
        <mxCell id="1hrxPjJIMzDO0wl7sMhk-3" value="1" style="edgeLabel;html=1;align=center;verticalAlign=middle;resizable=0;points=[];fontSize=12;fontFamily=Helvetica;fontColor=default;" connectable="0" vertex="1" parent="1">
          <mxGeometry x="66" y="152.33333333333326" as="geometry">
            <mxPoint x="-180" y="-100" as="offset" />
          </mxGeometry>
        </mxCell>
        <mxCell id="1hrxPjJIMzDO0wl7sMhk-4" value="0..*" style="edgeLabel;html=1;align=center;verticalAlign=middle;resizable=0;points=[];fontSize=12;fontFamily=Helvetica;fontColor=default;" connectable="0" vertex="1" parent="1">
          <mxGeometry x="400" y="228.00333333333325" as="geometry">
            <mxPoint x="63" y="-168" as="offset" />
          </mxGeometry>
        </mxCell>
        <mxCell id="TCDaWI29hVGHiBamOFBC-24" value="Total / Overlapping" style="text;strokeColor=none;fillColor=none;align=center;verticalAlign=middle;whiteSpace=wrap;rounded=0;fontFamily=Helvetica;fontSize=12;fontColor=default;labelBackgroundColor=default;" vertex="1" parent="1">
          <mxGeometry x="500" y="246.83" width="120" height="30" as="geometry" />
        </mxCell>
        <mxCell id="TCDaWI29hVGHiBamOFBC-84" value="CI:Generated documents, such as invoices, certificates, etc., are stored in ComputedDocuments." style="shape=note;whiteSpace=wrap;html=1;backgroundOutline=1;darkOpacity=0.05;fontFamily=Helvetica;fontSize=12;size=26;align=left;labelBackgroundColor=none;fillColor=#dae8fc;strokeColor=#6c8ebf;" vertex="1" parent="1">
          <mxGeometry x="100" y="-30" width="340" height="60" as="geometry" />
        </mxCell>
        <mxCell id="TCDaWI29hVGHiBamOFBC-90" value="Member" style="swimlane;fontStyle=0;childLayout=stackLayout;horizontal=1;startSize=26;fillColor=#fff2cc;horizontalStack=0;resizeParent=1;resizeParentMax=0;resizeLast=0;collapsible=1;marginBottom=0;fixDash=0;portConstraintRotation=0;connectable=1;allowArrows=1;strokeColor=#d6b656;" vertex="1" parent="1">
          <mxGeometry x="330.76" y="1160" width="140" height="20" as="geometry">
            <mxRectangle x="700" y="320" width="90" height="30" as="alternateBounds" />
          </mxGeometry>
        </mxCell>
        <mxCell id="TCDaWI29hVGHiBamOFBC-91" style="edgeStyle=none;shape=connector;rounded=1;orthogonalLoop=1;jettySize=auto;html=1;entryX=0.5;entryY=0;entryDx=0;entryDy=0;labelBackgroundColor=default;strokeColor=default;strokeWidth=1;align=center;verticalAlign=middle;fontFamily=Helvetica;fontSize=12;fontColor=default;endArrow=none;endFill=0;startSize=6;endSize=6;exitX=0.5;exitY=1;exitDx=0;exitDy=0;" edge="1" parent="1" source="FUVvW8D2CZjYxVvYTpuD-168" target="TCDaWI29hVGHiBamOFBC-90">
          <mxGeometry relative="1" as="geometry">
            <mxPoint x="410" y="1030" as="sourcePoint" />
          </mxGeometry>
        </mxCell>
        <mxCell id="TCDaWI29hVGHiBamOFBC-106" value="0..*" style="edgeLabel;html=1;align=center;verticalAlign=middle;resizable=0;points=[];fontSize=12;fontFamily=Helvetica;fontColor=default;" vertex="1" connectable="0" parent="TCDaWI29hVGHiBamOFBC-91">
          <mxGeometry x="0.8767" relative="1" as="geometry">
            <mxPoint y="-5" as="offset" />
          </mxGeometry>
        </mxCell>
        <mxCell id="TCDaWI29hVGHiBamOFBC-107" value="0..*" style="edgeLabel;html=1;align=center;verticalAlign=middle;resizable=0;points=[];fontSize=12;fontFamily=Helvetica;fontColor=default;" vertex="1" connectable="0" parent="TCDaWI29hVGHiBamOFBC-91">
          <mxGeometry x="-0.7955" relative="1" as="geometry">
            <mxPoint as="offset" />
          </mxGeometry>
        </mxCell>
        <mxCell id="TCDaWI29hVGHiBamOFBC-112" value="participates in&amp;nbsp;&amp;nbsp;▲" style="edgeLabel;html=1;align=center;verticalAlign=middle;resizable=0;points=[];fontSize=12;fontFamily=Helvetica;fontColor=default;" vertex="1" connectable="0" parent="TCDaWI29hVGHiBamOFBC-91">
          <mxGeometry x="-0.1692" y="-1" relative="1" as="geometry">
            <mxPoint as="offset" />
          </mxGeometry>
        </mxCell>
        <mxCell id="TCDaWI29hVGHiBamOFBC-92" value="Employee" style="swimlane;fontStyle=0;childLayout=stackLayout;horizontal=1;startSize=26;fillColor=#fff2cc;horizontalStack=0;resizeParent=1;resizeParentMax=0;resizeLast=0;collapsible=1;marginBottom=0;fixDash=0;portConstraintRotation=0;connectable=1;allowArrows=1;strokeColor=#d6b656;" vertex="1" parent="1">
          <mxGeometry x="-585" y="1010.43" width="140" height="19.57" as="geometry">
            <mxRectangle x="480" y="320" width="90" height="30" as="alternateBounds" />
          </mxGeometry>
        </mxCell>
        <mxCell id="TCDaWI29hVGHiBamOFBC-96" value="Documents" style="swimlane;fontStyle=0;childLayout=stackLayout;horizontal=1;startSize=26;fillColor=#fff2cc;horizontalStack=0;resizeParent=1;resizeParentMax=0;resizeLast=0;collapsible=1;marginBottom=0;fixDash=0;portConstraintRotation=0;connectable=1;allowArrows=1;strokeColor=#d6b656;" vertex="1" collapsed="1" parent="1">
          <mxGeometry x="270" y="460" width="90" height="20" as="geometry">
            <mxRectangle x="280" y="450" width="150" height="52" as="alternateBounds" />
          </mxGeometry>
        </mxCell>
        <mxCell id="TCDaWI29hVGHiBamOFBC-101" value="Coach" style="swimlane;fontStyle=0;childLayout=stackLayout;horizontal=1;startSize=26;fillColor=#f8cecc;horizontalStack=0;resizeParent=1;resizeParentMax=0;resizeLast=0;collapsible=1;marginBottom=0;fixDash=0;portConstraintRotation=0;connectable=1;allowArrows=1;strokeColor=#b85450;" vertex="1" parent="1">
          <mxGeometry x="70" y="1007.21" width="140" height="26" as="geometry">
            <mxRectangle x="680" y="1004" width="90" height="30" as="alternateBounds" />
          </mxGeometry>
        </mxCell>
        <mxCell id="TCDaWI29hVGHiBamOFBC-114" value="Yellow entities are tunnels to implemented entities" style="shape=note;whiteSpace=wrap;html=1;backgroundOutline=1;darkOpacity=0.05;fontFamily=Helvetica;fontSize=12;size=26;align=left;labelBackgroundColor=none;fillColor=#fff2cc;strokeColor=#d6b656;" vertex="1" parent="1">
          <mxGeometry x="400" y="-90" width="340" height="40" as="geometry" />
        </mxCell>
        <mxCell id="D4QHR3GzRB4AKSC7IVjc-3" value="CI:&amp;nbsp;members cannot register for 2 sessions taking place simultaneously&lt;br&gt;CI: Coach can&#39;t teach 2 sessions simultaneously" style="shape=note;whiteSpace=wrap;html=1;backgroundOutline=1;darkOpacity=0.05;fontFamily=Helvetica;fontSize=12;size=26;align=left;labelBackgroundColor=none;fillColor=#dae8fc;strokeColor=#6c8ebf;" vertex="1" parent="1">
          <mxGeometry x="520" y="1080" width="340" height="60" as="geometry" />
        </mxCell>
        <mxCell id="SJCmVbKFH3M2zekq8A61-19" style="edgeStyle=none;shape=connector;rounded=1;orthogonalLoop=1;jettySize=auto;html=1;exitX=0;exitY=0.5;exitDx=0;exitDy=0;entryX=1;entryY=0.25;entryDx=0;entryDy=0;labelBackgroundColor=default;strokeColor=default;strokeWidth=1;align=center;verticalAlign=middle;fontFamily=Helvetica;fontSize=12;fontColor=default;endArrow=none;endFill=0;startSize=6;endSize=6;" edge="1" parent="1" source="SJCmVbKFH3M2zekq8A61-17" target="FUVvW8D2CZjYxVvYTpuD-97">
          <mxGeometry relative="1" as="geometry" />
        </mxCell>
        <mxCell id="SJCmVbKFH3M2zekq8A61-20" value="Is relative to&amp;nbsp;&amp;nbsp;►" style="edgeLabel;html=1;align=center;verticalAlign=middle;resizable=0;points=[];fontSize=12;fontFamily=Helvetica;fontColor=default;" connectable="0" vertex="1" parent="SJCmVbKFH3M2zekq8A61-19">
          <mxGeometry x="-0.0691" y="-1" relative="1" as="geometry">
            <mxPoint as="offset" />
          </mxGeometry>
        </mxCell>
        <mxCell id="SJCmVbKFH3M2zekq8A61-22" value="0..*" style="edgeLabel;html=1;align=center;verticalAlign=middle;resizable=0;points=[];fontSize=12;fontFamily=Helvetica;fontColor=default;" connectable="0" vertex="1" parent="SJCmVbKFH3M2zekq8A61-19">
          <mxGeometry x="0.8809" y="-1" relative="1" as="geometry">
            <mxPoint as="offset" />
          </mxGeometry>
        </mxCell>
        <mxCell id="SJCmVbKFH3M2zekq8A61-23" value="1" style="edgeLabel;html=1;align=center;verticalAlign=middle;resizable=0;points=[];fontSize=12;fontFamily=Helvetica;fontColor=default;" connectable="0" vertex="1" parent="SJCmVbKFH3M2zekq8A61-19">
          <mxGeometry x="-0.9004" y="1" relative="1" as="geometry">
            <mxPoint as="offset" />
          </mxGeometry>
        </mxCell>
        <mxCell id="SJCmVbKFH3M2zekq8A61-17" value="Franchise" style="swimlane;fontStyle=0;childLayout=stackLayout;horizontal=1;startSize=26;fillColor=#fff2cc;horizontalStack=0;resizeParent=1;resizeParentMax=0;resizeLast=0;collapsible=1;marginBottom=0;fixDash=0;portConstraintRotation=0;connectable=1;allowArrows=1;strokeColor=#d6b656;" collapsed="1" vertex="1" parent="1">
          <mxGeometry x="1480" y="510" width="90" height="20" as="geometry">
            <mxRectangle x="280" y="450" width="150" height="52" as="alternateBounds" />
          </mxGeometry>
        </mxCell>
      </root>
    </mxGraphModel>
  </diagram>
</mxfile>
